<svg class="animated" id="freepik_stories-dj-girl" xmlns="http://www.w3.org/2000/svg" viewBox="0 0 500 500" version="1.1" xmlns:xlink="http://www.w3.org/1999/xlink" xmlns:svgjs="http://svgjs.com/svgjs"><style>svg#freepik_stories-dj-girl:not(.animated) .animable {opacity: 0;}svg#freepik_stories-dj-girl.animated #freepik--Character--inject-16 {animation: 1s 1 forwards cubic-bezier(.36,-0.01,.5,1.38) fadeIn;animation-delay: 0s;}svg#freepik_stories-dj-girl.animated #freepik--Speaker--inject-16 {animation: 1s 1 forwards cubic-bezier(.36,-0.01,.5,1.38) slideLeft,1.5s Infinite  linear wind;animation-delay: 0s,1s;}svg#freepik_stories-dj-girl.animated #freepik--musical-notes--inject-16 {animation: 1.5s Infinite  linear wind;animation-delay: 0s;}            @keyframes fadeIn {                0% {                    opacity: 0;                }                100% {                    opacity: 1;                }            }                    @keyframes slideLeft {                0% {                    opacity: 0;                    transform: translateX(-30px);                }                100% {                    opacity: 1;                    transform: translateX(0);                }            }                    @keyframes wind {                0% {                    transform: rotate( 0deg );                }                25% {                    transform: rotate( 1deg );                }                75% {                    transform: rotate( -1deg );                }            }        </style><g id="freepik--Floor--inject-16" style="transform-origin: 255.326px 359.363px 0px;" class="animable"><path id="freepik--floor--inject-16" d="M97.32,268.16c-87.25,50.37-87.25,132,0,182.41s228.71,50.37,316,0,87.24-132,0-182.41S184.56,217.78,97.32,268.16Z" style="fill: rgb(245, 245, 245); transform-origin: 255.326px 359.363px 0px;" class="animable"></path></g><g id="freepik--Shadows--inject-16" style="transform-origin: 256.083px 374.665px 0px;" class="animable"><g id="freepik--Shadow--inject-16"><polygon points="113.91 415.77 357.78 274.93 458.67 333.07 214.79 473.91 113.91 415.77" style="fill: rgb(224, 224, 224); opacity: 0.9; transform-origin: 286.29px 374.42px 0px;" class="animable"></polygon></g><path id="freepik--shadow--inject-16" d="M100.06,473.25,55.49,447.52c-2.66-1.53-2.66-4,0-5.56l62.73-36.22a10.64,10.64,0,0,1,9.63,0l44.47,25.78c2.66,1.54,2.66,4,0,5.56l-62.63,36.16A10.61,10.61,0,0,1,100.06,473.25Z" style="fill: rgb(224, 224, 224); transform-origin: 113.905px 439.494px 0px;" class="animable"></path></g><g id="freepik--Plants--inject-16" style="transform-origin: 440.886px 297.628px 0px;" class="animable"><g id="freepik--plants--inject-16" style="transform-origin: 440.886px 297.628px 0px;" class="animable"><path d="M433,337.36a.47.47,0,0,1-.17,0l-4.9-1.26a.4.4,0,0,1-.29-.27c-.05-.13-4.31-12.88,4.77-30.17,6.49-12.34,16.63-20.35,23.1-18.25a7.2,7.2,0,0,1,5,5.13,8.35,8.35,0,0,1-2.63,7.79c-.51.49-1.3,1.17-2.3,2-6.19,5.26-20.7,17.6-22.26,34.64a.47.47,0,0,1-.18.31A.67.67,0,0,1,433,337.36Zm-4.63-2,4.19,1.08c1.83-17.13,16.3-29.44,22.51-34.72,1-.84,1.77-1.5,2.25-2a7.52,7.52,0,0,0,2.41-7,6.28,6.28,0,0,0-4.48-4.51c-6.09-2-15.79,5.85-22.09,17.83C424.89,321.78,427.86,333.62,428.36,335.33Z" style="fill: rgb(197, 63, 63); transform-origin: 443.629px 312.222px 0px;" id="elpc139lt5dap" class="animable"></path><path d="M430.2,336.64h-.05a.42.42,0,0,1-.43-.42c-.36-19.9,13.41-39.08,22.69-43a.41.41,0,0,1,.55.22.43.43,0,0,1-.22.56c-9.17,3.9-22.52,23.36-22.18,42.24A.41.41,0,0,1,430.2,336.64Z" style="fill: rgb(197, 63, 63); transform-origin: 441.354px 314.912px 0px;" id="eltl1ueax9ath" class="animable"></path><path d="M428.09,336.1a.41.41,0,0,1-.19,0l-3.32-1a.41.41,0,0,1-.28-.28c-.06-.18-5.92-19.2-1.6-44.82,2.2-13.05,9.81-25.79,18.09-30.28a12.79,12.79,0,0,1,11.63-.8,6.39,6.39,0,0,1,3.94,4c1.37,4.85-3.67,12.07-9,19.71-3.73,5.34-7.59,10.87-9.34,15.75a.43.43,0,0,1-.55.25.42.42,0,0,1-.25-.54c1.8-5,5.68-10.56,9.44-16,5.21-7.47,10.13-14.53,8.87-19a5.49,5.49,0,0,0-3.45-3.48,11.94,11.94,0,0,0-10.9.77c-8.07,4.37-15.5,16.85-17.66,29.67-4,24,.89,42.07,1.51,44.22l3.11.94a.42.42,0,0,1-.06.82Z" style="fill: rgb(197, 63, 63); transform-origin: 438.85px 296.999px 0px;" id="elqkfcz9oc0e" class="animable"></path><path d="M427.27,324h0a.42.42,0,0,1-.46-.39c-2.5-30.79,14.68-55.45,19.76-59.68a.41.41,0,0,1,.59.05.43.43,0,0,1-.05.6c-5,4.17-21.93,28.5-19.46,59A.43.43,0,0,1,427.27,324Z" style="fill: rgb(197, 63, 63); transform-origin: 436.911px 293.915px 0px;" id="el084vzt1e3kd6" class="animable"></path></g></g><g id="freepik--Character--inject-16" style="transform-origin: 279.99px 238.93px 0px;" class="animable"><g id="freepik--character--inject-16" style="transform-origin: 279.99px 238.93px 0px;" class="animable"><g id="freepik--character--inject-16" style="transform-origin: 203.309px 228.403px 0px;" class="animable"><g id="freepik--Bottom--inject-16" style="transform-origin: 199.337px 318.243px 0px;" class="animable"><g id="freepik--bottom--inject-16" style="transform-origin: 199.337px 318.243px 0px;" class="animable"><path d="M170.8,351.68c1.16-1.49,11.09-16.67,18.36-30.35L208,336.92c-11.23,12.24-21.49,23.46-22.76,25-5.71,6.76-5.09,11-4.84,13.91.53,6.09,2.79,11.44,5.68,18.32-1.84,1-10.33-4.73-11.85-7.91-2.44-5.08-4.91-15-5.58-17-3.22-9.8.51-15.83.51-15.83Z" style="fill: rgb(255, 189, 167); transform-origin: 187.67px 357.798px 0px;" id="elha80p1me1yh" class="animable"></path><path d="M184.79,401.61c-.54.55-1.56,2.9-4.21,3-2.35.07-8.1-1.83-12.39-7.42s-5.22-9.55-5.57-13.12.71-7.66-1.65-12.12c-1.41-2.66-2.95-5.7-3-7s3.59-4.26,3.59-4.26Z" style="fill: rgb(38, 50, 56); transform-origin: 171.38px 382.651px 0px;" id="elymk2a6et0nc" class="animable"></path><path d="M170.8,351.68a1.12,1.12,0,0,0-1.39-.11c-.92.59-.75,1.35-3.3,3.8a44.74,44.74,0,0,0-6.14,6.71c-1.25,1.6.45,5.21,2.56,9,1.62,2.91,1.94,7.76,2.17,12.28.39,7.75,5.37,13.86,12,17.64,1.94,1.1,4.41,2.17,6.59,1.31a3.8,3.8,0,0,0,2.22-2.32,8.51,8.51,0,0,0,1-3.79,15.67,15.67,0,0,0-1.18-4.41c-.6-1.66-1.16-3.35-1.69-5.05-1.53-4.85-3.08-9.94-2.14-14.88a16.67,16.67,0,0,1,.46-2.44,10,10,0,0,1,1.35-2.54,10,10,0,0,0,.89-1.27,2.07,2.07,0,0,0,.24-1.5,2.77,2.77,0,0,0-.84-1.2,15.08,15.08,0,0,0-2.2-1.6,32.43,32.43,0,0,0-3.73-2,7.88,7.88,0,0,0-2.7-.81,4.41,4.41,0,0,0-3.4,1.29,10.13,10.13,0,0,1-1.73,1.79c.15-.88.33-1.74.56-2.59a15,15,0,0,0,.62-2.27,5.91,5.91,0,0,0-.36-2.91,13.37,13.37,0,0,1-.55-1.22Z" style="fill: rgb(55, 71, 79); transform-origin: 173.027px 377.001px 0px;" id="ellnj3ewjxrzn" class="animable"></path><path d="M185.27,391.51c-7.57-6.71-15.69-2.71-18.65-.42a24.38,24.38,0,0,0,4,6.11c4.82,5,9.67,6.32,12.38,5.63C186.15,402,188.42,398.43,185.27,391.51Z" style="fill: rgb(250, 250, 250); transform-origin: 176.701px 395.401px 0px;" id="eljezqikci6y" class="animable"></path><path d="M174.14,382.66a.47.47,0,0,1-.14-.29.46.46,0,0,1,.43-.52c2.17-.16,7.33.85,9.63,3.72a.48.48,0,0,1-.07.68.49.49,0,0,1-.68-.09c-2.16-2.68-7.05-3.47-8.78-3.35A.51.51,0,0,1,174.14,382.66Z" style="fill: rgb(240, 240, 240); transform-origin: 179.083px 384.091px 0px;" id="el75hf2og1wbg" class="animable"></path><path d="M173,377.76a.53.53,0,0,1-.14-.29.47.47,0,0,1,.43-.52c2.18-.16,7.34.85,9.63,3.72a.48.48,0,0,1-.07.68.48.48,0,0,1-.68-.09c-2.15-2.68-7-3.47-8.77-3.35A.53.53,0,0,1,173,377.76Z" style="fill: rgb(240, 240, 240); transform-origin: 177.943px 379.193px 0px;" id="eljv5d9lpjltc" class="animable"></path><path d="M172.05,373.1a.47.47,0,0,1-.14-.3.46.46,0,0,1,.43-.51c2.17-.16,7.34.85,9.62,3.72a.49.49,0,0,1-.06.68.5.5,0,0,1-.69-.1c-2.15-2.67-7.05-3.47-8.77-3.34A.51.51,0,0,1,172.05,373.1Z" style="fill: rgb(240, 240, 240); transform-origin: 176.989px 374.53px 0px;" id="elv62qig0cfes" class="animable"></path><path d="M171.54,367.42a.61.61,0,0,1-.14-.29.46.46,0,0,1,.42-.52c3-.27,8,1.41,10.25,4.29a.47.47,0,0,1-.06.67.51.51,0,0,1-.69-.09c-2.06-2.59-6.68-4.15-9.38-3.91A.53.53,0,0,1,171.54,367.42Z" style="fill: rgb(240, 240, 240); transform-origin: 176.789px 369.124px 0px;" id="elvuc80or16p" class="animable"></path><path d="M185.5,318.86a83.69,83.69,0,0,1,3.67-7.64c5.14-9.3,12.32-15.74,20.79-21.8.3-.21,4.68-3,4.62-2.32,0,.44-5.2,52.46-5.2,52.46l-22.11,21a45.38,45.38,0,0,1-8.37-6.27,15.55,15.55,0,0,1-4.57-8.28c1.25-2.6,1.91-5.28,3-7.87,1.33-3,2.79-6,4-9.06C182.77,325.68,184.06,322.24,185.5,318.86Z" style="fill: rgb(55, 71, 79); transform-origin: 194.455px 323.777px 0px;" id="eltlsnjo08ys" class="animable"></path><path d="M182.47,390.74c0-2.22-1.89-23.45-5.13-41.36l28.75.66c-1.47,19.48-2.78,37.29-2.86,39.6-.36,10.39,3.3,13.85,5.65,16.35,4.92,5.24,10.9,8.53,18.57,12.78-1,2.27-13,3.15-16.7,1.32-5.94-2.92-15.4-10.23-17.5-11.62-10.1-6.7-11-15-11-15Z" style="fill: rgb(255, 189, 167); transform-origin: 202.395px 385.228px 0px;" id="elwz3dvlv0xb" class="animable"></path><path d="M231.69,426.64c-.1.9.66,3.82-1.71,5.82-2.11,1.78-8.8,4.21-16.83,2.17s-11.77-5-14.69-8.06-4.91-7.58-10.34-10c-3.22-1.43-6.86-3.12-7.82-4.28s.22-6.54.22-6.54Z" style="fill: rgb(38, 50, 56); transform-origin: 205.827px 420.578px 0px;" id="elw8d03s2j3vd" class="animable"></path><path d="M182.47,390.74a1.31,1.31,0,0,0-1.37.9c-.41,1.22.29,1.8-.28,5.92a53.27,53.27,0,0,0-.79,10.65c0,2.39,4.21,4.49,8.93,6.46,3.6,1.5,7.43,5.74,10.92,9.75,6,6.87,15,8.89,23.93,7.54,2.59-.39,5.64-1.2,7-3.58a4.45,4.45,0,0,0,.36-3.76c-.46-1.56-.68-3-1.81-4.23a18.9,18.9,0,0,0-4.29-3.22c-1.77-1.1-3.51-2.25-5.24-3.43-4.94-3.36-10.07-6.93-12.79-12.18a18.26,18.26,0,0,1-1.36-2.59,11.78,11.78,0,0,1-.6-3.32,12.27,12.27,0,0,0-.1-1.82,2.46,2.46,0,0,0-.87-1.56,3.13,3.13,0,0,0-1.65-.49,17,17,0,0,0-3.19.11,38.09,38.09,0,0,0-4.88.89,9.64,9.64,0,0,0-3.09,1.22,5.2,5.2,0,0,0-2.2,3.66,11.28,11.28,0,0,1-.29,2.91c-.5-.91-1-1.85-1.37-2.8a16.7,16.7,0,0,0-1.08-2.54A6.93,6.93,0,0,0,184,392.8a12.4,12.4,0,0,1-1.4-.73Z" style="fill: rgb(55, 71, 79); transform-origin: 205.72px 411.544px 0px;" id="elgcjaskhjptp" class="animable"></path><path d="M224.79,417c-11.86-.69-19.12,7.25-20.19,11.52,2.56,2.29,8.37,4.05,10.79,4.39,8.11,1.13,13.53-1.2,15.52-3.81C233.24,426,232.72,421.07,224.79,417Z" style="fill: rgb(250, 250, 250); transform-origin: 218.361px 425.08px 0px;" id="elfa25cb5phtl" class="animable"></path><path d="M208.08,416.9a.53.53,0,0,1-.34-.17.55.55,0,0,1,0-.79c1.89-1.72,7.38-4.54,11.59-3.56a.55.55,0,0,1,.43.67.57.57,0,0,1-.7.41c-3.93-.9-9,1.93-10.53,3.3A.61.61,0,0,1,208.08,416.9Z" style="fill: rgb(240, 240, 240); transform-origin: 213.674px 414.541px 0px;" id="eljaa1m21surg" class="animable"></path><path d="M203.43,413.24a.56.56,0,0,1-.34-.17.55.55,0,0,1,0-.79c1.89-1.73,7.38-4.56,11.59-3.57a.56.56,0,1,1-.27,1.09c-3.93-.91-9,1.92-10.53,3.29A.58.58,0,0,1,203.43,413.24Z" style="fill: rgb(240, 240, 240); transform-origin: 209.015px 410.874px 0px;" id="ellbkkuxfvbcj" class="animable"></path><path d="M199.19,409.6a.58.58,0,0,1-.34-.17.55.55,0,0,1,0-.79c1.89-1.73,7.4-4.55,11.59-3.56a.54.54,0,0,1,.43.67.57.57,0,0,1-.69.41c-3.93-.91-9,1.92-10.53,3.29A.61.61,0,0,1,199.19,409.6Z" style="fill: rgb(240, 240, 240); transform-origin: 204.785px 407.239px 0px;" id="elz73odrqpjti" class="animable"></path><path d="M194.6,404.72a.55.55,0,0,1-.33-1c2.61-2.46,8.37-4.48,12.58-3.5a.57.57,0,0,1,.43.68.6.6,0,0,1-.7.41c-3.79-.89-9.19,1-11.5,3.21A.54.54,0,0,1,194.6,404.72Z" style="fill: rgb(240, 240, 240); transform-origin: 200.665px 402.345px 0px;" id="el0vflofahcy4" class="animable"></path><path d="M240.59,285.81c.61-13.59-1.39-35.05-2.15-44.58a196.51,196.51,0,0,0-3.78-24.67c-1.3-6.38-2-10.07-2.92-14.58-9.92,6.6-45.4,6.53-56.74-.9-4,7.18-8.32,10.64-12,21.78-3.29,9.94-2.93,19.34-2.14,27.13,1,10.41,9.6,40.59,12.22,51.8,4,17.35,2.76,20.15,2.54,27.77-.58,19.75,1.51,27.53,5.36,51.69a33.56,33.56,0,0,0,11.61,2.07,31.76,31.76,0,0,0,12.07-2.56L209.27,340s11-14.05,16.92-21.59S240,300.15,240.59,285.81Z" style="fill: rgb(69, 90, 100); transform-origin: 200.513px 292.2px 0px;" id="elvdq8h83ovpf" class="animable"></path><path d="M209.27,340c2.57-17,2.56-34.92,2.56-46.41s-2.56-54.68-2.56-54.68S221.74,236,228,225.19c-.62,11.21-13.37,17.13-13.37,17.13s.73,37.18.2,57.44A214,214,0,0,1,209.27,340Z" style="fill: rgb(38, 50, 56); transform-origin: 218.635px 282.595px 0px;" id="elp3yczqwy45p" class="animable"></path></g></g><g id="freepik--Top--inject-16" style="transform-origin: 203.309px 118.845px 0px;" class="animable"><g id="freepik--Arm--inject-16" style="transform-origin: 238.823px 92.835px 0px;" class="animable"><path d="M264.55,46.21a2.16,2.16,0,0,0-.67-.84c-.33-.27-.87-.39-1-.8a1.71,1.71,0,0,1,0-.55,2.81,2.81,0,0,0-1.8-2.56.57.57,0,0,1-.31-.18.63.63,0,0,1-.06-.43,2.43,2.43,0,0,0-1-1.91,5.76,5.76,0,0,0-1.4-.76c-.24-.1-.87-.28-1-.54a.41.41,0,0,1,0-.19,55.22,55.22,0,0,1,1.15-6.37c.43-2,.93-3.9,1.33-5.86a5.49,5.49,0,0,0,.11-2.28,2,2,0,0,0-1.52-1.53c-1.22-.14-2,1.21-2.47,2.36q-1.2,3.06-2.22,6.2c-.67,2.05-1.33,4.11-2,6.16-.62,1.82-1.33,3.6-1.93,5.42-.18.53-.61.35-.67-.11-.23-1.61-.31-3.27-.68-4.86a5.39,5.39,0,0,0-1.75-3.21c-.44-.31-1.48-.73-2-.43s-.57,1.05-.54,1.67A76.93,76.93,0,0,1,243.65,46c-.41,3.85,1.39,9.91,1.44,15.48.06,8.23-4.77,35.26-4.77,35.26L213,127.9l12.84,36.37s-.43-11,2.67-16.43c6.71-11.71,18.12-26.73,23.49-34.52,4.25-6.18,8-9.08,7.91-17,0-3.32.18-4.26.13-7.57s-.13-6.76-.34-16.21c0-1.32-.15-5,0-6.45a8.39,8.39,0,0,1,1.63-4.16c2.31-3,2-5.61,2.32-10.61.1-.77.58-2.35.94-4A2.09,2.09,0,0,0,264.55,46.21Z" style="fill: rgb(255, 189, 167); transform-origin: 238.823px 92.835px 0px;" id="elgm3sxm8eofc" class="animable"></path><path d="M260.79,70.35c-.43-.17-.68.25-.4.58a1.5,1.5,0,0,1-.17,2.08c-.75.69-2,.57-2.92.49a17.18,17.18,0,0,1-9.38-3.67c-1.7-1.37-4.9-4.15-3.53-6.56.13-.22-.18-.68-.44-.54-2.3,1.17-.24,4.3.88,5.57a18.67,18.67,0,0,0,14,6.37,3.21,3.21,0,0,0,2.87-1.79A1.79,1.79,0,0,0,260.79,70.35Zm-.24,6c-.43-.17-.68.24-.4.58A1.49,1.49,0,0,1,260,79c-.76.69-2,.57-2.92.49a17.27,17.27,0,0,1-9.39-3.68c-1.69-1.36-4.9-4.14-3.52-6.55.12-.23-.18-.68-.45-.55-2.3,1.18-.24,4.31.88,5.58a18.72,18.72,0,0,0,14,6.37,3.19,3.19,0,0,0,2.86-1.79A1.79,1.79,0,0,0,260.55,76.34Z" style="fill: rgb(197, 63, 63); transform-origin: 252.3px 71.682px 0px;" id="elzeg3jal0i4" class="animable"></path><path d="M256.68,39c0,3.31-2.05,6.64-1,9.9.25.64.92,1.38,1.62,1.25s1-1.21,1.26-1.87l1.81-4.76a42,42,0,0,1-1.92,6.11,1.91,1.91,0,0,1-1,1,2.12,2.12,0,0,1-2.2-1.52c-1.11-3.45,1.07-6.75,1.44-10.09Z" style="fill: rgb(240, 153, 122); transform-origin: 257.654px 44.8182px 0px;" id="el89vmg863pbg" class="animable"></path><path d="M257.66,50.25A3.21,3.21,0,0,0,259,52.6a.9.9,0,0,0,1.1,0c1.39-1.87,1.52-4.52,2.39-6.68-.34,1.73-.7,7.24-2.91,7.32-1.42-.15-2-1.8-1.92-3Z" style="fill: rgb(240, 153, 122); transform-origin: 260.071px 49.58px 0px;" id="elkyf8tf1hvm" class="animable"></path><path d="M259.94,52.94c.37,1.06,1.9,2.29,2.62.86,1-2,1.29-4.19,2-6.24-.1.88-.24,1.76-.42,2.63a12.74,12.74,0,0,1-1.2,3.86,1.55,1.55,0,0,1-1.23.83,2.18,2.18,0,0,1-1.8-1.94Z" style="fill: rgb(240, 153, 122); transform-origin: 262.235px 51.22px 0px;" id="el7bvvm74s48j" class="animable"></path><path d="M255.28,54.31a12.92,12.92,0,0,0-.64-3.54A12.71,12.71,0,0,0,253,47.43a14.55,14.55,0,0,0-1.21-1.51,4.22,4.22,0,0,0-1.32-1.13c-.08,0-.08.12,0,.16a15.3,15.3,0,0,0,1,1.24,12,12,0,0,1,1,1.44,14.31,14.31,0,0,1,1.44,3.25,13.79,13.79,0,0,1,.59,3.25c.06,1.09-.13,2.2,0,3.29,0,.11.18.31.28.15A5.77,5.77,0,0,0,255.28,54.31Z" style="fill: rgb(240, 153, 122); transform-origin: 252.872px 51.2099px 0px;" id="elua3rj5dju3q" class="animable"></path></g><g id="freepik--Hair--inject-16" style="transform-origin: 178.892px 116.375px 0px;" class="animable"><path d="M185.84,132.69c.28,2.08,7.59-1.43,8.25-2a3.48,3.48,0,0,1,.66-.48l.21-.08a3.87,3.87,0,0,1,1.13-.07,19.94,19.94,0,0,0,13-4.22,17.65,17.65,0,0,0,5.89-7.8,13,13,0,0,0-.2-9.66c-1.3-2.87-3.78-5.2-4.51-8.26s-.49-5.9-1.7-8.84c-6.39-15.53-28.57-17.4-42.05-11.39a29.7,29.7,0,0,0-4.77,2.67,22.24,22.24,0,0,0-9,12.07,16.32,16.32,0,0,0,2.77,14.5,19.26,19.26,0,0,1,.18-5.87c-.48,2.61,1.94,4.38,3.12,6.36,1.63,2.74.25,6.09-1.76,8.26-2.18,2.35-4.95,4.07-7.38,6.17-3.67,3.17-6.63,7.37-7.48,12.14s.67,10.11,4.51,13.08a8.86,8.86,0,0,1,.36-6.78c.24,2.93,2.08,5.52,4.25,7.51a22.85,22.85,0,0,0,12.77,5.82c6.27.71,13.15-.94,17.27-5.94,1.95-2.36,2.49-4.93,3.42-7.72A20.83,20.83,0,0,0,185.84,132.69Z" style="fill: rgb(38, 50, 56); transform-origin: 178.892px 116.348px 0px;" id="el7comddutz8y" class="animable"></path><path d="M180.82,150.6a5.9,5.9,0,0,0-2.76-2.72c-2.18-1.12-4.69-1.37-7-2.08s-4.74-2.16-5.42-4.52a11,11,0,0,0,3,8.64,16.87,16.87,0,0,1-13.58-15,22.72,22.72,0,0,0-1.17,9,15.47,15.47,0,0,1-3-15.58,9.71,9.71,0,0,0-5.94,7.7,18.81,18.81,0,0,1-.44-5.6,18.16,18.16,0,0,0-2.19,5.82c-.86,4.78.67,10.11,4.51,13.08a8.86,8.86,0,0,1,.36-6.78c.24,2.93,2.08,5.52,4.25,7.51a22.82,22.82,0,0,0,12.77,5.82C170.13,156.52,176.64,155.06,180.82,150.6Z" style="fill: rgb(197, 63, 63); transform-origin: 161.454px 142.185px 0px;" id="elto06as933dj" class="animable"></path></g><path d="M171,172.1s4.05-1.61,6.76-12.6c1.23-5-.73-14-2.43-18.28L185,138.1s14-5.26,25.46-8.35A5.27,5.27,0,0,0,213,127.9s14.31,12.6,23.14,24.67c2.87,3.91,6,14.48-2.58,22.38-.35,7.57-1.85,27-1.85,27s-4.71,12.46-24.53,11.17c-16.07-1-26.39-7.34-32.21-12.07C177.84,195.93,176.23,191.77,171,172.1Z" style="fill: rgb(255, 189, 167); transform-origin: 205.073px 170.557px 0px;" id="el05uam3jpdr33" class="animable"></path><path d="M188.21,161.92c-.1-.73-.28-1.45-.44-2.17-.29-1.24-.61-2.47-.93-3.7-.69-2.59-1.5-5.15-2.36-7.68a15.77,15.77,0,0,0-3.18-6.08c-1.53-1.57-3.93-2.73-6.15-2.07-.56.17-.21.88.27.87,4.8-.1,6.65,4.86,7.9,8.65.75,2.26,1.41,4.53,2.08,6.81.39,1.35.76,2.71,1.13,4.06.17.58.34,1.16.54,1.73a16.92,16.92,0,0,0,.76,1.68c.07.18.47.42.48.06A14.2,14.2,0,0,0,188.21,161.92Z" style="fill: rgb(197, 63, 63); transform-origin: 181.589px 152.149px 0px;" id="elcvrf9yr6s5h" class="animable"></path><g id="freepik--Head--inject-16" style="transform-origin: 186.912px 116.853px 0px;" class="animable"><path d="M203.71,101.5c-3.41-.68-4.83,1.72-6.15,4.18a2.64,2.64,0,0,1-2.57,1.59c-1.19-.21-1-.92-1.49-1.75-1.06-1.83-2.19-2.09-4.1-2.34a19,19,0,0,1-12.71-7.49,14.23,14.23,0,0,0,2.85,5.13,22.59,22.59,0,0,1-11.15-9.69,21.69,21.69,0,0,0-4.1,7.34,17.57,17.57,0,0,0-.64,8.53c.16,1.13.35,3.1,1,7,2.17,13.07,8.3,16,10.71,16.85s4.17,1.32,8.49.26c0,0,.59,1.66,1.18,3.35.78,2.25-.45,3.79-3.84,4.89,6.44,9,27.94-3,29.24-9.58-2.86.49-5.17-.48-6.72-4.72-2.15-5.88-4.06-11.08-4.06-11.08,1.91,2.89,5.81,1.23,7.19-1.73C209,107.55,208,102.35,203.71,101.5Z" style="fill: rgb(255, 189, 167); transform-origin: 186.912px 116.853px 0px;" id="elz8o3rt8jz1p" class="animable"></path><path d="M183.84,131.09c6.32-2.17,12.17-6.15,13.86-12.23-.28,6.92-3.2,11.19-12.87,15Z" style="fill: rgb(240, 153, 122); transform-origin: 190.77px 126.36px 0px;" id="ell3h9losz3t" class="animable"></path><path d="M165.08,105.62l3.75-2.78a2.24,2.24,0,0,0-3.21-.55A2.45,2.45,0,0,0,165.08,105.62Z" style="fill: rgb(38, 50, 56); transform-origin: 166.742px 103.731px 0px;" id="elz41qoo4626a" class="animable"></path><path d="M181.09,98.45l4.46,1.39a2.25,2.25,0,0,0-1.45-2.92A2.45,2.45,0,0,0,181.09,98.45Z" style="fill: rgb(38, 50, 56); transform-origin: 183.388px 98.3286px 0px;" id="el5owbzqevgf9" class="animable"></path><path d="M166.6,109.31c-.4-1,1,.08,2-.32s1.17-2.12,1.58-1.13a1.94,1.94,0,0,1-3.6,1.45Z" style="fill: rgb(38, 50, 56); transform-origin: 168.426px 109.042px 0px;" id="elvarz5r028m8" class="animable"></path><path d="M181,105.41c-.26-1,1,.22,2.05,0s1.45-1.93,1.71-.89a1.94,1.94,0,0,1-3.76.93Z" style="fill: rgb(38, 50, 56); transform-origin: 182.879px 105.501px 0px;" id="eliog312fq73" class="animable"></path><path d="M184.65,116.34l-5.43,3.6a3.27,3.27,0,0,0,4.77.73A3.06,3.06,0,0,0,184.65,116.34Z" style="fill: rgb(177, 102, 104); transform-origin: 182.244px 118.867px 0px;" id="elzivqjlmuy7b" class="animable"></path><path d="M182.32,121.33a3.42,3.42,0,0,1,2.49-3.86l.31,0a2.87,2.87,0,0,1-1.13,3.25A3.71,3.71,0,0,1,182.32,121.33Z" style="fill: rgb(240, 153, 122); transform-origin: 183.765px 119.4px 0px;" id="elzxqh72atqvo" class="animable"></path><polygon points="176.67 103.73 179.22 115.63 172.26 115.46 176.67 103.73" style="fill: rgb(240, 153, 122); transform-origin: 175.74px 109.68px 0px;" id="el68boprb5043" class="animable"></polygon></g><g id="freepik--Headphones--inject-16" style="transform-origin: 184.109px 92.1055px 0px;" class="animable"><path d="M167.28,78.08a13.16,13.16,0,0,0-4.45,3.83c-.36.22-.7.44-1,.68a25.25,25.25,0,0,0-3,2.39c-2-4.18-3.17-10.58-2.09-11.88C158.06,71.49,164.79,75.47,167.28,78.08Z" style="fill: rgb(197, 63, 63); transform-origin: 161.804px 78.854px 0px;" id="elbe7mv4q2d0m" class="animable"></path><path d="M195.47,99.84c0-10.86-1.73-18.18-7.23-22.66s-20.59-.33-23.92,3.85L162,82.41a10.87,10.87,0,0,1,5.53-5.66,42.48,42.48,0,0,1,19.27-3.2c7.11.62,8.8,2.65,10.65,4.61s5.29,9.16,4.61,20.17Z" style="fill: rgb(69, 90, 100); transform-origin: 182.074px 86.6467px 0px;" id="elgsi9401h9po" class="animable"></path><path d="M198.74,115.3a16,16,0,0,1-4.39-13.73,6.81,6.81,0,0,1,1.51-3.17,3.93,3.93,0,0,1,1.79-1.17l2.31-.74c1.58-.5,3.45.06,5.19,1.63a16,16,0,0,1,4.38,13.73A6.75,6.75,0,0,1,208,115a4,4,0,0,1-1.8,1.17l-2.28.73C202.36,117.44,200.48,116.88,198.74,115.3Z" style="fill: rgb(55, 71, 79); transform-origin: 201.941px 106.706px 0px;" id="elzuc2pqfr7pl" class="animable"></path><path d="M208,115a6.75,6.75,0,0,0,1.51-3.18,16,16,0,0,0-4.38-13.73c-2.47-2.23-5.21-2.41-7-.46a6.9,6.9,0,0,0-1.51,3.18A16,16,0,0,0,201,114.57C203.5,116.81,206.24,117,208,115Z" style="fill: rgb(38, 50, 56); transform-origin: 203.063px 106.333px 0px;" id="el4ycd847p6pi" class="animable"></path><path d="M201.38,114.19A15.37,15.37,0,0,1,197.15,101c.48-2.17,1.57-3.53,2.95-4l1.15-.36c1.38-.45,3.06,0,4.7,1.52a15.37,15.37,0,0,1,4.23,13.24c-.47,2.16-1.57,3.52-3,4l-1.15.37C204.7,116.15,203,115.68,201.38,114.19Z" style="fill: rgb(240, 240, 240); transform-origin: 203.668px 106.185px 0px;" id="elxa87rqygue9" class="animable"></path><path d="M198.3,100.58a15.37,15.37,0,0,0,4.23,13.24c3.28,3,6.71,1.89,7.65-2.44A15.37,15.37,0,0,0,206,98.14C202.67,95.15,199.25,96.25,198.3,100.58Z" style="fill: rgb(224, 224, 224); transform-origin: 204.244px 105.982px 0px;" id="el7odcb9x8qto" class="animable"></path><path d="M202.53,113.82a15.37,15.37,0,0,1-4.23-13.24c.47-2.16,1.56-3.52,2.95-4,.38-.13,1.12-.31,1.51-.43,1.38-.44,3.05,0,4.69,1.52A15.37,15.37,0,0,1,211.68,111c-.47,2.16-1.56,3.52-2.94,4l-1.51.43C205.85,115.78,204.17,115.31,202.53,113.82Z" style="fill: rgb(197, 63, 63); transform-origin: 204.996px 105.764px 0px;" id="eldk2fuzy54f" class="animable"></path><g id="elqq1k44oqblc"><path d="M199.8,100.15A15.37,15.37,0,0,0,204,113.39c3.28,3,6.71,1.89,7.65-2.44a15.37,15.37,0,0,0-4.23-13.24C204.17,94.73,200.75,95.82,199.8,100.15Z" style="opacity: 0.25; transform-origin: 205.723px 105.554px 0px;" class="animable"></path></g><path d="M203.53,102.57a8.07,8.07,0,0,0,2.22,7c1.72,1.56,3.52,1,4-1.29a8.06,8.06,0,0,0-2.22-6.95C205.82,99.72,204,100.3,203.53,102.57Z" style="fill: rgb(38, 50, 56); transform-origin: 206.637px 105.434px 0px;" id="elkc8eao2l9fq" class="animable"></path><path d="M203.77,105.5l3-.15-1.57-4.91a2.55,2.55,0,0,0-1.55,2.07A7.39,7.39,0,0,0,203.77,105.5Z" style="fill: rgb(69, 90, 100); transform-origin: 205.161px 102.97px 0px;" id="el86j19ut9hqp" class="animable"></path><path d="M205.93,109.47a2.57,2.57,0,0,0,2.46.8l-1.57-4.92-3,.15A7.83,7.83,0,0,0,205.93,109.47Z" style="fill: rgb(55, 71, 79); transform-origin: 206.105px 107.839px 0px;" id="eltnmopnpld8m" class="animable"></path><path d="M208.39,110.27a2.57,2.57,0,0,0,1.55-2.08,7,7,0,0,0-.07-3l-3.05.14Z" style="fill: rgb(69, 90, 100); transform-origin: 208.445px 107.73px 0px;" id="ellvpps8kjrql" class="animable"></path><path d="M206.82,105.35l3.05-.14a7.88,7.88,0,0,0-2.15-4,2.55,2.55,0,0,0-2.47-.79Z" style="fill: rgb(55, 71, 79); transform-origin: 207.56px 102.853px 0px;" id="el40tqbvh98xg" class="animable"></path><path d="M188,74.31c1.91-3,7.72-8.29,9.35-7s1.38,11-.68,14.83A13.64,13.64,0,0,0,188,74.31Z" style="fill: rgb(197, 63, 63); transform-origin: 193.208px 74.6255px 0px;" id="elxllx0n9kqto" class="animable"></path></g><path d="M208.45,129.43c2.75,8,3,20.42-15.67,28.57a60.89,60.89,0,0,1-17,4.56c-.74,5.32-5.4,9.46-5.4,9.46l5.4,20.67s8,9.34,31.82,8.06,26.67-10.41,26.67-10.41l.82-15a18.5,18.5,0,0,0,4.68-15.81c-1.66-9.75-26.19-32.77-26.19-32.77A9.69,9.69,0,0,1,208.45,129.43Z" style="fill: rgb(235, 235, 235); transform-origin: 205.215px 163.815px 0px;" id="elzym4zikb2w" class="animable"></path><path d="M215.36,179.76s-4.87,6.39-15.72,4.85S186.47,175,186.47,175s-.39,10.5,12.58,12.3C211.82,189,215.36,179.76,215.36,179.76Z" style="fill: rgb(224, 224, 224); transform-origin: 200.914px 181.254px 0px;" id="elkmzi0p23m6i" class="animable"></path><path id="freepik--arm--inject-16" d="M175.34,141.22c-14.58,4.58-16,10.21-18.89,21.21-2.43,9.27-4.33,17-7.13,27.13-4.2,15.11-4.72,16.83-.29,26.73l19.47-11S171,195,176.84,173.66C179.47,164,182,154,175.34,141.22Z" style="fill: rgb(255, 189, 167); transform-origin: 162.758px 178.755px 0px;" class="animable"></path><path d="M180.43,161.82c-11.93,2.41-24.3-1-24.3-1l-5.78,19.69s3,2.1,10.24,3.41a39.36,39.36,0,0,0,14.41-.44Z" style="fill: rgb(224, 224, 224); transform-origin: 165.39px 172.602px 0px;" id="elmypfyf64chm" class="animable"></path></g></g><g id="freepik--Table--inject-16" style="transform-origin: 279.99px 306.64px 0px;" class="animable"><polygon points="221.18 334.11 429.01 214.17 429.01 336.52 221.18 456.46 221.18 334.11" style="fill: rgb(55, 71, 79); transform-origin: 325.095px 335.315px 0px;" id="elxv13olreujb" class="animable"></polygon><polygon points="221.18 334.11 139.7 287.08 139.7 409.43 221.18 456.46 221.18 334.11" style="fill: rgb(38, 50, 56); transform-origin: 180.44px 371.77px 0px;" id="eleqyjkuj0jph" class="animable"></polygon><g id="elf6iq7awcjx6"><polygon points="221.18 364.16 429.01 244.22 429.01 214.17 221.18 334.11 139.7 287.08 139.7 317.13 221.18 364.16" style="opacity: 0.15; transform-origin: 284.355px 289.165px 0px;" class="animable"></polygon></g><polygon points="112.42 297.67 356.3 156.84 447.56 209.42 203.68 350.25 112.42 297.67" style="fill: rgb(197, 63, 63); transform-origin: 279.99px 253.545px 0px;" id="elss060x9kj1" class="animable"></polygon><g id="elsx0jrsb616f"><polygon points="112.42 297.67 356.3 156.84 447.56 209.42 203.68 350.25 112.42 297.67" style="fill: rgb(255, 255, 255); opacity: 0.9; transform-origin: 279.99px 253.545px 0px;" class="animable"></polygon></g><g id="elb4zcx1ytfgf"><g style="opacity: 0.2; transform-origin: 279.99px 253.535px 0px;" class="animable"><path d="M356.3,157.82l89.56,51.6L203.68,349.27l-89.56-51.6L356.3,157.82m0-1L112.42,297.67l91.26,52.58L447.56,209.42,356.3,156.84Z" style="fill: rgb(197, 63, 63); transform-origin: 279.99px 253.535px 0px;" id="el6xxrpaqojt" class="animable"></path></g></g><polygon points="203.68 357.73 203.68 350.25 112.42 297.67 112.42 305.14 203.68 357.73" style="fill: rgb(197, 63, 63); transform-origin: 158.05px 327.7px 0px;" id="elst2ffmse11" class="animable"></polygon><g id="elfi3tkyjejp8"><polygon points="203.68 357.73 203.68 350.25 112.42 297.67 112.42 305.14 203.68 357.73" style="fill: rgb(255, 255, 255); opacity: 0.5; transform-origin: 158.05px 327.7px 0px;" class="animable"></polygon></g><polygon points="447.56 209.42 447.56 216.89 203.68 357.73 203.68 350.25 447.56 209.42" style="fill: rgb(197, 63, 63); transform-origin: 325.62px 283.575px 0px;" id="el93i137i6wy" class="animable"></polygon><g id="eleps430fy1"><polygon points="447.56 209.42 447.56 216.89 203.68 357.73 203.68 350.25 447.56 209.42" style="fill: rgb(255, 255, 255); opacity: 0.7; transform-origin: 325.62px 283.575px 0px;" class="animable"></polygon></g><path d="M240.55,427.12h0c-.89.51-1.61,0-1.61-1.22V369.4a3.84,3.84,0,0,1,1.61-3.07h0c.88-.51,1.6,0,1.6,1.22V424A3.88,3.88,0,0,1,240.55,427.12Z" style="fill: rgb(38, 50, 56); transform-origin: 240.545px 396.725px 0px;" id="elhu6hp2xt1m9" class="animable"></path><path d="M247.31,423.21h0c-.89.51-1.61,0-1.61-1.22V365.5a3.83,3.83,0,0,1,1.61-3.07h0c.89-.52,1.61,0,1.61,1.21v56.5A3.84,3.84,0,0,1,247.31,423.21Z" style="fill: rgb(38, 50, 56); transform-origin: 247.31px 392.818px 0px;" id="eln07qskc4jhk" class="animable"></path><path d="M254.07,419.31h0c-.88.51-1.6,0-1.6-1.22v-56.5a3.86,3.86,0,0,1,1.6-3.07h0c.89-.51,1.61,0,1.61,1.22v56.49A3.86,3.86,0,0,1,254.07,419.31Z" style="fill: rgb(38, 50, 56); transform-origin: 254.075px 388.915px 0px;" id="el1i68fodp4sx" class="animable"></path><path d="M260.84,415.4h0c-.89.51-1.61,0-1.61-1.22V357.69a3.86,3.86,0,0,1,1.61-3.08h0c.89-.51,1.61,0,1.61,1.22v56.5A3.84,3.84,0,0,1,260.84,415.4Z" style="fill: rgb(38, 50, 56); transform-origin: 260.84px 385.005px 0px;" id="elt6n13jbvml" class="animable"></path><path d="M267.6,411.5h0c-.89.51-1.61,0-1.61-1.22v-56.5a3.84,3.84,0,0,1,1.61-3.07h0c.89-.51,1.61,0,1.61,1.22v56.49A3.86,3.86,0,0,1,267.6,411.5Z" style="fill: rgb(38, 50, 56); transform-origin: 267.6px 381.105px 0px;" id="el0lt2fydnn7e" class="animable"></path><path d="M274.37,407.59h0c-.89.51-1.61,0-1.61-1.22V349.88a3.86,3.86,0,0,1,1.61-3.08h0c.88-.51,1.6,0,1.6,1.22v56.5A3.86,3.86,0,0,1,274.37,407.59Z" style="fill: rgb(38, 50, 56); transform-origin: 274.365px 377.195px 0px;" id="elfmc8byeb21" class="animable"></path><path d="M281.13,403.69h0c-.89.51-1.61,0-1.61-1.22V346a3.84,3.84,0,0,1,1.61-3.07h0c.89-.51,1.61,0,1.61,1.22v56.49A3.86,3.86,0,0,1,281.13,403.69Z" style="fill: rgb(38, 50, 56); transform-origin: 281.13px 373.31px 0px;" id="eluboa3nsukc" class="animable"></path><path d="M287.89,399.78h0c-.89.51-1.61,0-1.61-1.22V342.07a3.86,3.86,0,0,1,1.61-3.08h0c.89-.51,1.61,0,1.61,1.22v56.5A3.84,3.84,0,0,1,287.89,399.78Z" style="fill: rgb(38, 50, 56); transform-origin: 287.89px 369.385px 0px;" id="el4kinqzhduhg" class="animable"></path><path d="M294.66,395.88h0c-.89.51-1.61,0-1.61-1.22v-56.5a3.84,3.84,0,0,1,1.61-3.07h0c.89-.51,1.61,0,1.61,1.22V392.8A3.86,3.86,0,0,1,294.66,395.88Z" style="fill: rgb(38, 50, 56); transform-origin: 294.66px 365.485px 0px;" id="el6i4q88vm2ek" class="animable"></path><path d="M301.42,392h0c-.89.51-1.61,0-1.61-1.22V334.26a3.86,3.86,0,0,1,1.61-3.08h0c.89-.51,1.61,0,1.61,1.22v56.5A3.84,3.84,0,0,1,301.42,392Z" style="fill: rgb(38, 50, 56); transform-origin: 301.42px 361.59px 0px;" id="elpzqccv566dr" class="animable"></path><path d="M308.18,388.07h0c-.88.51-1.6,0-1.6-1.22v-56.5a3.86,3.86,0,0,1,1.6-3.07h0c.89-.51,1.61,0,1.61,1.22V385A3.86,3.86,0,0,1,308.18,388.07Z" style="fill: rgb(38, 50, 56); transform-origin: 308.185px 357.675px 0px;" id="elhyre8k5fsd" class="animable"></path><path d="M315,384.16h0c-.89.51-1.61,0-1.61-1.22V326.45a3.86,3.86,0,0,1,1.61-3.08h0c.89-.51,1.61,0,1.61,1.22v56.5A3.84,3.84,0,0,1,315,384.16Z" style="fill: rgb(38, 50, 56); transform-origin: 315px 353.765px 0px;" id="elwwtk10sx8m" class="animable"></path><path d="M321.71,380.25h0c-.89.52-1.61,0-1.61-1.21v-56.5a3.84,3.84,0,0,1,1.61-3.07h0c.89-.51,1.61,0,1.61,1.22v56.49A3.83,3.83,0,0,1,321.71,380.25Z" style="fill: rgb(38, 50, 56); transform-origin: 321.71px 349.862px 0px;" id="el65t6vhpgvx" class="animable"></path><path d="M328.48,376.35h0c-.89.51-1.61,0-1.61-1.22V318.64a3.86,3.86,0,0,1,1.61-3.08h0c.88-.51,1.6,0,1.6,1.22v56.5A3.86,3.86,0,0,1,328.48,376.35Z" style="fill: rgb(38, 50, 56); transform-origin: 328.475px 345.955px 0px;" id="elz2cm7cue35n" class="animable"></path><path d="M335.24,372.44h0c-.89.52-1.61,0-1.61-1.21v-56.5a3.84,3.84,0,0,1,1.61-3.07h0c.89-.51,1.61,0,1.61,1.21v56.5A3.83,3.83,0,0,1,335.24,372.44Z" style="fill: rgb(38, 50, 56); transform-origin: 335.24px 342.052px 0px;" id="elk5ilyrb6h4p" class="animable"></path><path d="M342,368.54h0c-.89.51-1.61,0-1.61-1.22V310.83a3.86,3.86,0,0,1,1.61-3.08h0c.89-.51,1.61,0,1.61,1.22v56.5A3.84,3.84,0,0,1,342,368.54Z" style="fill: rgb(38, 50, 56); transform-origin: 342px 338.145px 0px;" id="elhp2hhdll9q" class="animable"></path><path d="M348.77,364.63h0c-.89.52-1.61,0-1.61-1.21v-56.5a3.84,3.84,0,0,1,1.61-3.07h0c.89-.51,1.61,0,1.61,1.21v56.5A3.83,3.83,0,0,1,348.77,364.63Z" style="fill: rgb(38, 50, 56); transform-origin: 348.77px 334.242px 0px;" id="ellwnx982yjl" class="animable"></path><path d="M355.53,360.73h0c-.89.51-1.61,0-1.61-1.22V303a3.86,3.86,0,0,1,1.61-3.08h0c.89-.51,1.61,0,1.61,1.22v56.5A3.84,3.84,0,0,1,355.53,360.73Z" style="fill: rgb(38, 50, 56); transform-origin: 355.53px 330.325px 0px;" id="elb5gc0bfeu7s" class="animable"></path><path d="M362.29,356.82h0c-.88.52-1.6,0-1.6-1.21v-56.5a3.86,3.86,0,0,1,1.6-3.07h0c.89-.51,1.61,0,1.61,1.21v56.5A3.83,3.83,0,0,1,362.29,356.82Z" style="fill: rgb(38, 50, 56); transform-origin: 362.295px 326.432px 0px;" id="eld28vn99iph6" class="animable"></path><path d="M369.06,352.92h0c-.89.51-1.61,0-1.61-1.22V295.21a3.86,3.86,0,0,1,1.61-3.08h0c.89-.51,1.61,0,1.61,1.22v56.5A3.84,3.84,0,0,1,369.06,352.92Z" style="fill: rgb(38, 50, 56); transform-origin: 369.06px 322.525px 0px;" id="elw3vxphmgpu" class="animable"></path><path d="M375.82,349h0c-.89.52-1.61,0-1.61-1.21V291.3a3.84,3.84,0,0,1,1.61-3.07h0c.89-.51,1.61,0,1.61,1.21v56.5A3.83,3.83,0,0,1,375.82,349Z" style="fill: rgb(38, 50, 56); transform-origin: 375.82px 318.617px 0px;" id="elwrj14nluqvq" class="animable"></path><path d="M382.59,345.11h0c-.89.51-1.61,0-1.61-1.22V287.4a3.86,3.86,0,0,1,1.61-3.08h0c.88-.51,1.6,0,1.6,1.22V342A3.86,3.86,0,0,1,382.59,345.11Z" style="fill: rgb(38, 50, 56); transform-origin: 382.585px 314.715px 0px;" id="el4sgovdvirf7" class="animable"></path><path d="M389.35,341.2h0c-.89.52-1.61,0-1.61-1.21v-56.5a3.84,3.84,0,0,1,1.61-3.07h0c.89-.51,1.61,0,1.61,1.21v56.5A3.83,3.83,0,0,1,389.35,341.2Z" style="fill: rgb(38, 50, 56); transform-origin: 389.35px 310.812px 0px;" id="el30192upfgmr" class="animable"></path><path d="M396.11,337.3h0c-.88.51-1.6,0-1.6-1.22V279.59a3.88,3.88,0,0,1,1.6-3.08h0c.89-.51,1.61,0,1.61,1.22v56.5A3.84,3.84,0,0,1,396.11,337.3Z" style="fill: rgb(38, 50, 56); transform-origin: 396.115px 306.905px 0px;" id="elu66xmcdr11q" class="animable"></path><path d="M402.88,333.39h0c-.89.52-1.61,0-1.61-1.21v-56.5a3.84,3.84,0,0,1,1.61-3.07h0c.89-.51,1.61,0,1.61,1.21v56.5A3.84,3.84,0,0,1,402.88,333.39Z" style="fill: rgb(38, 50, 56); transform-origin: 402.88px 303.002px 0px;" id="elzmik1icl1wq" class="animable"></path><path d="M409.64,329.49h0c-.89.51-1.61,0-1.61-1.22V271.78a3.86,3.86,0,0,1,1.61-3.08h0c.89-.51,1.61,0,1.61,1.22v56.5A3.84,3.84,0,0,1,409.64,329.49Z" style="fill: rgb(38, 50, 56); transform-origin: 409.64px 299.095px 0px;" id="elneywz67mwy" class="animable"></path><path d="M240.55,401.63h0c-.89.51-1.61,0-1.61-1.22v-6.34a3.84,3.84,0,0,1,1.61-3.07h0c.88-.51,1.6,0,1.6,1.22v6.33A3.88,3.88,0,0,1,240.55,401.63Z" style="fill: rgb(197, 63, 63); transform-origin: 240.545px 396.315px 0px;" id="elx1gp4b6vr8n" class="animable"></path><path d="M247.31,410.23h0c-.89.51-1.61,0-1.61-1.21V377.66a3.83,3.83,0,0,1,1.61-3.07h0c.89-.52,1.61,0,1.61,1.21v31.36A3.84,3.84,0,0,1,247.31,410.23Z" style="fill: rgb(197, 63, 63); transform-origin: 247.31px 392.408px 0px;" id="el4a4rrayt0aq" class="animable"></path><path d="M254.07,402h0c-.88.51-1.6,0-1.6-1.22V378.05a3.86,3.86,0,0,1,1.6-3.07h0c.89-.51,1.61,0,1.61,1.21V399A3.85,3.85,0,0,1,254.07,402Z" style="fill: rgb(197, 63, 63); transform-origin: 254.075px 388.49px 0px;" id="elxl0vwubn3xa" class="animable"></path><path d="M260.84,391.35h0c-.89.51-1.61,0-1.61-1.22v-9.21a3.84,3.84,0,0,1,1.61-3.07h0c.89-.51,1.61,0,1.61,1.21v9.21A3.85,3.85,0,0,1,260.84,391.35Z" style="fill: rgb(197, 63, 63); transform-origin: 260.84px 384.6px 0px;" id="ellvnfcgyrajo" class="animable"></path><path d="M267.6,404.67h0c-.89.51-1.61,0-1.61-1.22V359.79a3.83,3.83,0,0,1,1.61-3.07h0c.89-.52,1.61,0,1.61,1.21V401.6A3.84,3.84,0,0,1,267.6,404.67Z" style="fill: rgb(197, 63, 63); transform-origin: 267.6px 380.693px 0px;" id="elwu3y5aabri" class="animable"></path><path d="M274.37,392h0c-.89.51-1.61,0-1.61-1.22V364.67a3.84,3.84,0,0,1,1.61-3.07h0c.88-.51,1.6,0,1.6,1.22V388.9A3.88,3.88,0,0,1,274.37,392Z" style="fill: rgb(197, 63, 63); transform-origin: 274.365px 376.8px 0px;" id="ely75nv3oeaq" class="animable"></path><path d="M281.13,378.42h0c-.89.52-1.61,0-1.61-1.21v-6.8a3.84,3.84,0,0,1,1.61-3.07h0c.89-.51,1.61,0,1.61,1.22v6.79A3.83,3.83,0,0,1,281.13,378.42Z" style="fill: rgb(197, 63, 63); transform-origin: 281.13px 372.882px 0px;" id="elmygmi4038ma" class="animable"></path><path d="M287.89,377.31h0c-.89.51-1.61,0-1.61-1.22V363.72a3.84,3.84,0,0,1,1.61-3.07h0c.89-.51,1.61,0,1.61,1.22v12.36A3.86,3.86,0,0,1,287.89,377.31Z" style="fill: rgb(197, 63, 63); transform-origin: 287.89px 368.98px 0px;" id="el165wptfvqqoj" class="animable"></path><path d="M294.66,380.5h0c-.89.51-1.61,0-1.61-1.21V352.72a3.86,3.86,0,0,1,1.61-3.08h0c.89-.51,1.61,0,1.61,1.22v26.57A3.84,3.84,0,0,1,294.66,380.5Z" style="fill: rgb(197, 63, 63); transform-origin: 294.66px 365.07px 0px;" id="el76yy2iu3lk4" class="animable"></path><path d="M301.42,369.41h0c-.89.52-1.61,0-1.61-1.21V356a3.84,3.84,0,0,1,1.61-3.07h0c.89-.51,1.61,0,1.61,1.22v12.2A3.83,3.83,0,0,1,301.42,369.41Z" style="fill: rgb(197, 63, 63); transform-origin: 301.42px 361.172px 0px;" id="elldrwqg1moaf" class="animable"></path><path d="M308.18,362.58h0c-.88.51-1.6,0-1.6-1.22V355a3.86,3.86,0,0,1,1.6-3.07h0c.89-.51,1.61,0,1.61,1.22v6.33A3.86,3.86,0,0,1,308.18,362.58Z" style="fill: rgb(197, 63, 63); transform-origin: 308.185px 357.255px 0px;" id="el2om1asrc3rm" class="animable"></path><path d="M315,366h0c-.89.51-1.61,0-1.61-1.22V343.76a3.86,3.86,0,0,1,1.61-3.08h0c.89-.51,1.61,0,1.61,1.22V363A3.84,3.84,0,0,1,315,366Z" style="fill: rgb(197, 63, 63); transform-origin: 315px 353.34px 0px;" id="el5if2rswt3fp" class="animable"></path><path d="M321.71,367.89h0c-.89.52-1.61,0-1.61-1.21v-32.6a3.84,3.84,0,0,1,1.61-3.07h0c.89-.51,1.61,0,1.61,1.22v32.59A3.83,3.83,0,0,1,321.71,367.89Z" style="fill: rgb(197, 63, 63); transform-origin: 321.71px 349.452px 0px;" id="elukhm2mzlstk" class="animable"></path><path d="M328.48,363.5h0c-.89.52-1.61,0-1.61-1.21V330.66a3.84,3.84,0,0,1,1.61-3.07h0c.88-.51,1.6,0,1.6,1.22v31.62A3.86,3.86,0,0,1,328.48,363.5Z" style="fill: rgb(197, 63, 63); transform-origin: 328.475px 345.547px 0px;" id="ela2ztcr1r0mq" class="animable"></path><path d="M335.24,347.31h0c-.89.51-1.61,0-1.61-1.22v-7a3.84,3.84,0,0,1,1.61-3.07h0c.89-.52,1.61,0,1.61,1.21v7A3.86,3.86,0,0,1,335.24,347.31Z" style="fill: rgb(197, 63, 63); transform-origin: 335.24px 341.663px 0px;" id="eloqyxf4ywtvk" class="animable"></path><path d="M342,348.86h0c-.89.52-1.61,0-1.61-1.21v-18a3.84,3.84,0,0,1,1.61-3.07h0c.89-.51,1.61,0,1.61,1.22v18A3.84,3.84,0,0,1,342,348.86Z" style="fill: rgb(197, 63, 63); transform-origin: 342px 337.722px 0px;" id="el4f04lfuh4js" class="animable"></path><path d="M348.77,358.43h0c-.89.51-1.61,0-1.61-1.22v-44.9a3.83,3.83,0,0,1,1.61-3.07h0c.89-.52,1.61,0,1.61,1.21v44.9A3.85,3.85,0,0,1,348.77,358.43Z" style="fill: rgb(197, 63, 63); transform-origin: 348.77px 333.833px 0px;" id="elm40cdqmryaf" class="animable"></path><path d="M355.53,345.36h0c-.89.51-1.61,0-1.61-1.22V317.57a3.84,3.84,0,0,1,1.61-3.07h0c.89-.52,1.61,0,1.61,1.21v26.57A3.86,3.86,0,0,1,355.53,345.36Z" style="fill: rgb(197, 63, 63); transform-origin: 355.53px 329.928px 0px;" id="eld5wgkgt9jj" class="animable"></path><path d="M362.29,335h0c-.88.51-1.6,0-1.6-1.22v-13.6a3.88,3.88,0,0,1,1.6-3.08h0c.89-.51,1.61,0,1.61,1.22V331.9A3.84,3.84,0,0,1,362.29,335Z" style="fill: rgb(197, 63, 63); transform-origin: 362.295px 326.05px 0px;" id="eljaxswwcqd0i" class="animable"></path><path d="M369.06,327.43h0c-.89.51-1.61,0-1.61-1.22v-6.33a3.86,3.86,0,0,1,1.61-3.08h0c.89-.51,1.61,0,1.61,1.22v6.34A3.84,3.84,0,0,1,369.06,327.43Z" style="fill: rgb(197, 63, 63); transform-origin: 369.06px 322.115px 0px;" id="elq0zz5cjrfkl" class="animable"></path><path d="M375.82,329.75h0c-.89.51-1.61,0-1.61-1.22V309.75a3.86,3.86,0,0,1,1.61-3.08h0c.89-.51,1.61,0,1.61,1.22v18.78A3.85,3.85,0,0,1,375.82,329.75Z" style="fill: rgb(197, 63, 63); transform-origin: 375.82px 318.21px 0px;" id="elooj0b7bqwtr" class="animable"></path><path d="M382.59,328.29h0c-.89.52-1.61,0-1.61-1.21V303.39a3.84,3.84,0,0,1,1.61-3.07h0c.88-.51,1.6,0,1.6,1.21v23.69A3.85,3.85,0,0,1,382.59,328.29Z" style="fill: rgb(197, 63, 63); transform-origin: 382.585px 314.307px 0px;" id="elf0dymuhys1v" class="animable"></path><path d="M389.35,335.22h0c-.89.51-1.61,0-1.61-1.22V288.66a3.84,3.84,0,0,1,1.61-3.07h0c.89-.52,1.61,0,1.61,1.21v45.34A3.86,3.86,0,0,1,389.35,335.22Z" style="fill: rgb(197, 63, 63); transform-origin: 389.35px 310.403px 0px;" id="el3uy45d2ca76" class="animable"></path><path d="M396.11,323.16h0c-.88.52-1.6,0-1.6-1.21V292.9a3.86,3.86,0,0,1,1.6-3.07h0c.89-.51,1.61,0,1.61,1.22v29A3.84,3.84,0,0,1,396.11,323.16Z" style="fill: rgb(197, 63, 63); transform-origin: 396.115px 306.497px 0px;" id="el8bdbo6p9ksp" class="animable"></path><path d="M402.88,312.16h0c-.89.51-1.61,0-1.61-1.22V296.1a3.86,3.86,0,0,1,1.61-3.08h0c.89-.51,1.61,0,1.61,1.22v14.84A3.86,3.86,0,0,1,402.88,312.16Z" style="fill: rgb(197, 63, 63); transform-origin: 402.88px 302.59px 0px;" id="elclp8m9zjz5s" class="animable"></path><path d="M409.64,304h0c-.89.51-1.61,0-1.61-1.22v-6.33a3.86,3.86,0,0,1,1.61-3.08h0c.89-.51,1.61,0,1.61,1.22v6.34A3.84,3.84,0,0,1,409.64,304Z" style="fill: rgb(197, 63, 63); transform-origin: 409.64px 298.685px 0px;" id="elhkejgpdpecg" class="animable"></path></g><g id="freepik--Laptop--inject-16" style="transform-origin: 351.393px 191.575px 0px;" class="animable"><g id="freepik--shadow--inject-16"><path d="M404.52,195.17l-39.37-22.73a2.28,2.28,0,0,0-2.26,0L294.6,211.88a.51.51,0,0,0,0,.87l39.74,22.94Z" style="opacity: 0.2; transform-origin: 349.438px 203.915px 0px;" class="animable"></path></g><path d="M398.94,191.85v.85a3.5,3.5,0,0,1-1.74,3l-61,35.21a3.41,3.41,0,0,1-1.74.46,3.52,3.52,0,0,1-1.75-.46L299.46,211.8a3.51,3.51,0,0,1-1.74-3V207.6h0a.46.46,0,0,0,.22.39l36.51,21.08Z" style="fill: rgb(55, 71, 79); transform-origin: 348.33px 211.61px 0px;" id="elzaqmskac7eb" class="animable"></path><path d="M398.94,191.85,362.77,171a2,2,0,0,0-2.07,0L298,207.2a.46.46,0,0,0,0,.8l36.51,21.08Z" style="fill: rgb(69, 90, 100); transform-origin: 348.354px 199.896px 0px;" id="el6gjkv2v47mv" class="animable"></path><polygon points="334.12 226.01 314.62 214.76 371.66 181.82 391.27 193.02 334.12 226.01" style="fill: rgb(55, 71, 79); transform-origin: 352.945px 203.915px 0px;" id="ela5ug90ddr27" class="animable"></polygon><polygon points="391.27 193.01 390.52 193.44 371.66 182.68 315.36 215.19 314.62 214.76 371.66 181.82 391.27 193.01" style="fill: rgb(38, 50, 56); transform-origin: 352.945px 198.505px 0px;" id="eluqxprk9mdnh" class="animable"></polygon><polygon points="324.54 194.71 324.89 194.92 334.46 200.44 351.46 190.62 351.81 190.42 341.89 184.69 324.54 194.71" style="fill: rgb(38, 50, 56); transform-origin: 338.175px 192.565px 0px;" id="elfihm4osi315" class="animable"></polygon><polygon points="324.89 194.92 334.46 200.44 351.46 190.62 341.89 185.1 324.89 194.92" style="fill: rgb(55, 71, 79); transform-origin: 338.175px 192.77px 0px;" id="elycf1e8uhuur" class="animable"></polygon><path d="M334.46,229.08v2.32a3.5,3.5,0,0,0,1.74-.47l61-35.21a3.5,3.5,0,0,0,1.74-3v-.84Z" style="fill: rgb(38, 50, 56); transform-origin: 366.7px 211.64px 0px;" id="elmvp6fpgedvb" class="animable"></path><path d="M335.44,229.59a4.13,4.13,0,0,0,3.56-.27l60.73-35.07a4.12,4.12,0,0,0,2-2.88l6.65-39.65a5.31,5.31,0,0,0,.05-.68,4.15,4.15,0,0,0-1.22-2.94l-63.11,36.45a3,3,0,0,0-1.48,2.13Z" style="fill: rgb(55, 71, 79); transform-origin: 371.935px 188.986px 0px;" id="elyv4nmpz61cr" class="animable"></path><path d="M334.46,229.08l.41.24a5.94,5.94,0,0,0,.57.27l7.19-42.91a3,3,0,0,1,1.48-2.13l63.11-36.45a4.14,4.14,0,0,0-.84-.64L343.14,184a3.09,3.09,0,0,0-1.49,2.14Z" style="fill: rgb(69, 90, 100); transform-origin: 370.84px 188.525px 0px;" id="el9qhf7l3qp8r" class="animable"></path><path d="M343.21,185.35l-1-.56a3.09,3.09,0,0,0-.58,1.32l-7.19,43,.41.24a5.94,5.94,0,0,0,.57.27l7.19-42.91A3.06,3.06,0,0,1,343.21,185.35Z" style="fill: rgb(38, 50, 56); transform-origin: 338.825px 207.205px 0px;" id="el4olw0wf79kp" class="animable"></path><path d="M369.64,193c.45-2.65,3.19-6.18,6.13-7.88s5-.91,4.51,1.74-3.19,6.18-6.13,7.88S369.2,195.64,369.64,193Z" style="fill: rgb(197, 63, 63); transform-origin: 374.966px 189.929px 0px;" id="elc54fungku1" class="animable"></path></g><g id="freepik--Controller--inject-16" style="transform-origin: 239.524px 270.264px 0px;" class="animable"><g id="eldj8yfr26gb"><path d="M337.77,258a.71.71,0,0,0,0-1.23l-60.49-34.92a3.55,3.55,0,0,0-3.54,0L141.32,298.11a.78.78,0,0,0,0,1.36l60.76,35.09a2.77,2.77,0,0,0,2.76,0Z" style="opacity: 0.2; transform-origin: 239.524px 278.153px 0px;" class="animable"></path></g><polygon points="204.12 328.16 214.25 322.31 156.75 289.11 146.63 294.97 204.12 328.16" style="fill: rgb(69, 90, 100); transform-origin: 180.44px 308.635px 0px;" id="elb180g7i046c" class="animable"></polygon><polygon points="214.25 322.31 214.25 325.35 204.12 331.2 204.12 328.16 214.25 322.31" style="fill: rgb(55, 71, 79); transform-origin: 209.185px 326.755px 0px;" id="elzg4hgkgeo1j" class="animable"></polygon><polygon points="146.63 294.97 146.63 298.01 204.12 331.2 204.12 328.16 146.63 294.97" style="fill: rgb(38, 50, 56); transform-origin: 175.375px 313.085px 0px;" id="elky9odu2ftlk" class="animable"></polygon><polygon points="322.25 259.97 332.37 254.11 274.88 220.92 264.75 226.77 322.25 259.97" style="fill: rgb(69, 90, 100); transform-origin: 298.56px 240.445px 0px;" id="elwvnzoulflg" class="animable"></polygon><polygon points="332.37 254.11 332.37 257.15 322.25 263.01 322.25 259.97 332.37 254.11" style="fill: rgb(55, 71, 79); transform-origin: 327.31px 258.56px 0px;" id="el23ixrqos0lj" class="animable"></polygon><polygon points="264.75 226.77 264.75 229.82 322.25 263.01 322.25 259.97 264.75 226.77" style="fill: rgb(38, 50, 56); transform-origin: 293.5px 244.89px 0px;" id="eloket6o31jic" class="animable"></polygon><polygon points="204.12 312.84 146.63 279.65 274.88 205.6 332.37 238.79 204.12 312.84" style="fill: rgb(69, 90, 100); transform-origin: 239.5px 259.22px 0px;" id="el96j7dspsfum" class="animable"></polygon><polygon points="146.63 279.65 146.63 294.97 204.12 328.16 204.12 312.84 146.63 279.65" style="fill: rgb(38, 50, 56); transform-origin: 175.375px 303.905px 0px;" id="elgqe732c211" class="animable"></polygon><polygon points="332.37 238.79 332.37 254.12 204.12 328.16 204.12 312.84 332.37 238.79" style="fill: rgb(55, 71, 79); transform-origin: 268.245px 283.475px 0px;" id="el3srfxw3h8nb" class="animable"></polygon><path d="M254.71,289.24a.29.29,0,0,1-.25-.14.29.29,0,0,1,.1-.39l31-17.88a.29.29,0,0,1,.28.5l-31,17.87A.23.23,0,0,1,254.71,289.24Z" style="fill: rgb(197, 63, 63); transform-origin: 270.187px 280.026px 0px;" id="elxil9jkt6qg" class="animable"></path><path d="M254.71,291.8a.29.29,0,0,1-.25-.14.29.29,0,0,1,.1-.39l31-17.88a.29.29,0,0,1,.39.1.28.28,0,0,1-.11.39l-31,17.88A.23.23,0,0,1,254.71,291.8Z" style="fill: rgb(197, 63, 63); transform-origin: 270.206px 282.576px 0px;" id="elxh7boeagdbr" class="animable"></path><path d="M254.71,294.36a.29.29,0,0,1-.25-.15.29.29,0,0,1,.1-.39l31-17.87a.28.28,0,1,1,.28.49l-31,17.88A.33.33,0,0,1,254.71,294.36Z" style="fill: rgb(197, 63, 63); transform-origin: 270.202px 285.136px 0px;" id="el5xcvhntmfbb" class="animable"></path><path d="M215.49,303.31a.23.23,0,0,1-.14,0l-3.19-1.81a.28.28,0,0,1-.15-.25.31.31,0,0,1,.15-.25l7-4a.28.28,0,0,1,.28,0l3.13,1.78a.29.29,0,0,1,.15.25.29.29,0,0,1-.14.25l-6.92,4A.23.23,0,0,1,215.49,303.31Zm-2.61-2.1,2.61,1.48,6.34-3.66-2.56-1.45Z" style="fill: rgb(197, 63, 63); transform-origin: 217.365px 300.142px 0px;" id="el8z5kp01tja3" class="animable"></path><path d="M228.76,295.65a.28.28,0,0,1-.15,0l-3.19-1.81a.29.29,0,0,1,0-.5l7-4a.28.28,0,0,1,.28,0l3.13,1.78a.28.28,0,0,1,0,.5l-6.91,4A.27.27,0,0,1,228.76,295.65Zm-2.62-2.1,2.61,1.48,6.35-3.66-2.56-1.45Z" style="fill: rgb(197, 63, 63); transform-origin: 230.63px 292.481px 0px;" id="elhs6kryizf7k" class="animable"></path><path d="M242,288a.25.25,0,0,1-.14,0l-3.19-1.81a.27.27,0,0,1-.14-.25.3.3,0,0,1,.14-.25l7-4a.34.34,0,0,1,.28,0l3.14,1.78a.29.29,0,0,1,0,.5l-6.91,4A.28.28,0,0,1,242,288Zm-2.61-2.1,2.61,1.48,6.34-3.66-2.56-1.45Z" style="fill: rgb(197, 63, 63); transform-origin: 243.881px 284.835px 0px;" id="elm060f4c85v" class="animable"></path><path d="M166.84,275.22a.32.32,0,0,1-.14,0l-3.19-1.81a.3.3,0,0,1-.14-.25.27.27,0,0,1,.14-.25l7-4a.3.3,0,0,1,.29,0l3.13,1.78a.27.27,0,0,1,.14.24.27.27,0,0,1-.14.25l-6.92,4A.32.32,0,0,1,166.84,275.22Zm-2.61-2.09,2.61,1.48,6.34-3.66-2.56-1.46Z" style="fill: rgb(197, 63, 63); transform-origin: 168.72px 272.05px 0px;" id="el4fj2qhgt72n" class="animable"></path><path d="M180.11,267.56a.32.32,0,0,1-.14,0l-3.19-1.81a.31.31,0,0,1-.15-.25.28.28,0,0,1,.15-.25l7-4a.28.28,0,0,1,.28,0l3.13,1.78a.28.28,0,0,1,.15.24.27.27,0,0,1-.14.25l-6.92,4A.32.32,0,0,1,180.11,267.56Zm-2.61-2.09,2.61,1.48,6.34-3.66-2.56-1.46Z" style="fill: rgb(197, 63, 63); transform-origin: 181.985px 264.39px 0px;" id="el2gxope2hwf4" class="animable"></path><path d="M193.38,259.9l-.15,0L190,258.06a.31.31,0,0,1-.14-.25.27.27,0,0,1,.14-.25l7-4a.28.28,0,0,1,.28,0l3.13,1.78a.28.28,0,0,1,.15.24.28.28,0,0,1-.15.25l-6.91,4A.27.27,0,0,1,193.38,259.9Zm-2.62-2.09,2.61,1.48,6.35-3.66-2.56-1.45Z" style="fill: rgb(197, 63, 63); transform-origin: 195.21px 256.711px 0px;" id="el6jmn256wcmu" class="animable"></path><path d="M281.83,265a.32.32,0,0,1-.14,0l-3.19-1.81a.3.3,0,0,1-.14-.25.27.27,0,0,1,.14-.25l7-4a.3.3,0,0,1,.29,0l3.13,1.78a.27.27,0,0,1,.14.24.27.27,0,0,1-.14.25l-6.92,4A.23.23,0,0,1,281.83,265Zm-2.61-2.09,2.61,1.48,6.34-3.66-2.56-1.46Z" style="fill: rgb(197, 63, 63); transform-origin: 283.71px 261.83px 0px;" id="elkv9j7xdm92o" class="animable"></path><path d="M295.1,257.29a.32.32,0,0,1-.14,0l-3.19-1.81a.31.31,0,0,1-.15-.25.28.28,0,0,1,.15-.25l7-4a.28.28,0,0,1,.28,0l3.14,1.78a.29.29,0,0,1,.14.24.27.27,0,0,1-.14.25l-6.92,4A.32.32,0,0,1,295.1,257.29Zm-2.61-2.09,2.61,1.48,6.34-3.66-2.56-1.46Z" style="fill: rgb(197, 63, 63); transform-origin: 296.975px 254.12px 0px;" id="elkfia39ux4xo" class="animable"></path><path d="M308.37,249.63a.4.4,0,0,1-.15,0L305,247.79a.31.31,0,0,1-.14-.25.29.29,0,0,1,.14-.25l7-4a.28.28,0,0,1,.28,0l3.13,1.78a.28.28,0,0,1,.15.24.28.28,0,0,1-.15.25l-6.91,4Zm-2.62-2.09,2.61,1.48,6.35-3.66-2.56-1.45Z" style="fill: rgb(197, 63, 63); transform-origin: 310.21px 246.445px 0px;" id="elcpxeoo8ui2j" class="animable"></path><path d="M233.19,236.87a.42.42,0,0,1-.15,0L229.85,235a.31.31,0,0,1-.14-.25.29.29,0,0,1,.14-.25l7-4a.28.28,0,0,1,.28,0l3.13,1.78a.28.28,0,0,1,.15.25.28.28,0,0,1-.15.24l-6.91,4A.43.43,0,0,1,233.19,236.87Zm-2.62-2.1,2.61,1.48,6.35-3.66L237,231.14Z" style="fill: rgb(197, 63, 63); transform-origin: 235.06px 233.67px 0px;" id="elo9vtad5ex8" class="animable"></path><path d="M246.45,229.21a.33.33,0,0,1-.14,0l-3.19-1.81a.29.29,0,0,1,0-.5l7-4a.3.3,0,0,1,.29,0l3.13,1.78a.27.27,0,0,1,.14.25.3.3,0,0,1-.14.25l-6.92,4A.33.33,0,0,1,246.45,229.21Zm-2.61-2.1,2.61,1.48,6.34-3.66-2.56-1.45Z" style="fill: rgb(197, 63, 63); transform-origin: 248.329px 226.04px 0px;" id="elqcm5xl4kok" class="animable"></path><path d="M259.72,221.55a.33.33,0,0,1-.14,0l-3.19-1.81a.28.28,0,0,1,0-.5l7-4a.28.28,0,0,1,.28,0l3.14,1.78a.31.31,0,0,1,.14.25.29.29,0,0,1-.14.25l-6.92,4A.33.33,0,0,1,259.72,221.55Zm-2.61-2.1,2.61,1.48,6.34-3.66-2.56-1.45Z" style="fill: rgb(197, 63, 63); transform-origin: 261.593px 218.38px 0px;" id="elivv9k83mczl" class="animable"></path><path d="M186.41,289.87c11,6.35,28.83,6.35,39.83,0s11-16.64,0-23-28.84-6.35-39.83,0S175.41,283.51,186.41,289.87Z" style="fill: rgb(38, 50, 56); transform-origin: 206.327px 278.368px 0px;" id="el87y906teomm" class="animable"></path><path d="M226.41,289.76l-5.57-12.67-6.61,3.5,3.08,12.74a33.88,33.88,0,0,0,8.93-3.47Z" style="fill: rgb(55, 71, 79); transform-origin: 220.32px 285.21px 0px;" id="elb9nqjwhlmgg" class="animable"></path><path d="M230.76,286.46l-6.59-11.92-1.79.74,5.85,13.31A20.15,20.15,0,0,0,230.76,286.46Z" style="fill: rgb(55, 71, 79); transform-origin: 226.57px 281.565px 0px;" id="el6rmlwaap29" class="animable"></path><path d="M187.5,285.92c10.4,6,27.25,6,37.65,0s10.39-15.74,0-21.74-27.26-6-37.65,0S177.1,279.92,187.5,285.92Z" style="fill: rgb(197, 63, 63); transform-origin: 206.325px 275.05px 0px;" id="elxdbh0lq03jj" class="animable"></path><g id="elhuck5z65pcf"><g style="opacity: 0.15; transform-origin: 221.58px 281.92px 0px;" class="animable"><path d="M220.84,277.09l-6.61,3.5,2.1,8.71a32.68,32.68,0,0,0,8.47-3.2Z" style="fill: rgb(255, 255, 255); transform-origin: 219.515px 283.195px 0px;" id="elhukmzucpwdh" class="animable"></path><path d="M224.17,274.54l-1.79.74,4.26,9.69a19.7,19.7,0,0,0,2.29-1.82Z" style="fill: rgb(255, 255, 255); transform-origin: 225.655px 279.755px 0px;" id="eluno5ekq9pei" class="animable"></path></g></g><path d="M188.79,282.11c9.68,5.6,25.38,5.59,35.06,0s9.69-14.65,0-20.24-25.38-5.59-35.06,0S179.11,276.52,188.79,282.11Z" style="fill: rgb(38, 50, 56); transform-origin: 206.322px 271.992px 0px;" id="elzkkrfh5p9ks" class="animable"></path><path d="M189.91,281.1c9.06,5,23.76,5,32.83,0s9.07-13.19,0-18.22-23.77-5-32.84,0S180.84,276.07,189.91,281.1Z" style="fill: rgb(55, 71, 79); transform-origin: 206.323px 271.984px 0px;" id="elg8n9yqu18bn" class="animable"></path><path d="M186.69,278.86,206.32,272l-21.47,4.91A12.85,12.85,0,0,0,186.69,278.86Z" style="fill: rgb(38, 50, 56); transform-origin: 195.585px 275.43px 0px;" id="ell0j3wkb3iha" class="animable"></path><path d="M211.82,284.5,206.32,272,208,284.83C209.26,284.78,210.55,284.67,211.82,284.5Z" style="fill: rgb(38, 50, 56); transform-origin: 209.07px 278.415px 0px;" id="elzb90yqzjhe" class="animable"></path><path d="M229.46,272.93,206.32,272l22.5,3.13A7.71,7.71,0,0,0,229.46,272.93Z" style="fill: rgb(38, 50, 56); transform-origin: 217.89px 273.565px 0px;" id="el3ec185ssfsp" class="animable"></path><path d="M215,260l-8.65,12,12.14-11A34.38,34.38,0,0,0,215,260Z" style="fill: rgb(38, 50, 56); transform-origin: 212.42px 266px 0px;" id="ela3o4vkezni" class="animable"></path><path d="M189.9,262.88c-.43.24-.83.5-1.22.76L206.32,272l-14.84-9.9C190.94,262.34,190.41,262.6,189.9,262.88Z" style="fill: rgb(38, 50, 56); transform-origin: 197.5px 267.05px 0px;" id="el7vbccl3oceb" class="animable"></path><path d="M200.73,275.22a12.37,12.37,0,0,0,11.18,0c3.09-1.78,3.09-4.67,0-6.45a12.31,12.31,0,0,0-11.18,0C197.65,270.55,197.65,273.44,200.73,275.22Z" style="fill: rgb(197, 63, 63); transform-origin: 206.324px 271.991px 0px;" id="el6n46wxeh6j2" class="animable"></path><path d="M202.56,274.17a8.33,8.33,0,0,0,7.53,0c2.08-1.2,2.08-3.15,0-4.35a8.33,8.33,0,0,0-7.53,0C200.48,271,200.48,273,202.56,274.17Z" style="fill: rgb(38, 50, 56); transform-origin: 206.325px 271.995px 0px;" id="el289t9iw2fo7" class="animable"></path><path d="M204.75,272.9a3.47,3.47,0,0,0,3.14,0,1,1,0,0,0,0-1.81,3.47,3.47,0,0,0-3.14,0A1,1,0,0,0,204.75,272.9Z" style="fill: rgb(197, 63, 63); transform-origin: 206.32px 271.995px 0px;" id="elwyqszl1ab6l" class="animable"></path><path d="M252.56,251.67c11,6.35,28.84,6.35,39.84,0s11-16.65,0-23-28.83-6.35-39.83,0S241.56,245.32,252.56,251.67Z" style="fill: rgb(38, 50, 56); transform-origin: 272.482px 240.17px 0px;" id="elhzxqogj4oc" class="animable"></path><path d="M292.57,251.56,287,238.9l-6.62,3.49,3.08,12.75a34.66,34.66,0,0,0,8.94-3.47Z" style="fill: rgb(55, 71, 79); transform-origin: 286.475px 247.02px 0px;" id="el4vt8lkh1mss" class="animable"></path><path d="M296.91,248.26l-6.58-11.92-1.8.74,5.86,13.31A19.34,19.34,0,0,0,296.91,248.26Z" style="fill: rgb(55, 71, 79); transform-origin: 292.72px 243.365px 0px;" id="eljmrs708pf6h" class="animable"></path><path d="M253.65,247.72c10.4,6,27.26,6,37.65,0s10.4-15.73,0-21.74-27.25-6-37.65,0S243.26,241.72,253.65,247.72Z" style="fill: rgb(197, 63, 63); transform-origin: 272.475px 236.848px 0px;" id="elbya97nz3e9h" class="animable"></path><g id="el7ypxie8cwnr"><g style="opacity: 0.15; transform-origin: 287.73px 243.72px 0px;" class="animable"><path d="M287,238.9l-6.62,3.49,2.11,8.71a32.68,32.68,0,0,0,8.47-3.2Z" style="fill: rgb(255, 255, 255); transform-origin: 285.67px 245px 0px;" id="el6loe75pvnfu" class="animable"></path><path d="M290.33,236.34l-1.8.74,4.26,9.69a18.14,18.14,0,0,0,2.29-1.82Z" style="fill: rgb(255, 255, 255); transform-origin: 291.805px 241.555px 0px;" id="elxvlnetu5rb" class="animable"></path></g></g><path d="M255,243.92c9.68,5.59,25.38,5.59,35.06,0s9.68-14.66,0-20.25-25.38-5.59-35.06,0S245.26,238.33,255,243.92Z" style="fill: rgb(38, 50, 56); transform-origin: 272.519px 233.795px 0px;" id="ellcd939zu0x" class="animable"></path><path d="M256.06,242.9c9.07,5,23.77,5,32.84,0s9.06-13.18,0-18.22-23.77-5-32.84,0S247,237.87,256.06,242.9Z" style="fill: rgb(55, 71, 79); transform-origin: 272.48px 233.782px 0px;" id="el7vf1pvv8hu" class="animable"></path><path d="M252.85,240.66l19.63-6.87L251,238.7A12.85,12.85,0,0,0,252.85,240.66Z" style="fill: rgb(38, 50, 56); transform-origin: 261.74px 237.225px 0px;" id="elby8yplaq2sn" class="animable"></path><path d="M278,246.3l-5.5-12.51,1.64,12.84C275.42,246.58,276.71,246.47,278,246.3Z" style="fill: rgb(38, 50, 56); transform-origin: 275.25px 240.21px 0px;" id="el68a3a0604hu" class="animable"></path><path d="M295.62,234.73l-23.14-.94,22.5,3.13A8,8,0,0,0,295.62,234.73Z" style="fill: rgb(38, 50, 56); transform-origin: 284.05px 235.355px 0px;" id="eltkgozuw3kg" class="animable"></path><path d="M281.12,221.84l-8.64,11.95,12.14-11A30.05,30.05,0,0,0,281.12,221.84Z" style="fill: rgb(38, 50, 56); transform-origin: 278.55px 227.815px 0px;" id="el9yhamjhg0gq" class="animable"></path><path d="M256.06,224.68c-.44.25-.83.5-1.23.76l17.65,8.35-14.84-9.9C257.1,224.14,256.57,224.4,256.06,224.68Z" style="fill: rgb(38, 50, 56); transform-origin: 263.655px 228.84px 0px;" id="el5080mms5d0f" class="animable"></path><path d="M266.89,237a12.37,12.37,0,0,0,11.18,0c3.08-1.78,3.08-4.67,0-6.45a12.34,12.34,0,0,0-11.18,0C263.8,232.35,263.8,235.24,266.89,237Z" style="fill: rgb(197, 63, 63); transform-origin: 272.476px 233.773px 0px;" id="elqg2ti6to44" class="animable"></path><path d="M268.71,236a8.33,8.33,0,0,0,7.53,0c2.08-1.2,2.08-3.15,0-4.35a8.33,8.33,0,0,0-7.53,0C266.64,232.82,266.64,234.77,268.71,236Z" style="fill: rgb(38, 50, 56); transform-origin: 272.479px 233.825px 0px;" id="el4nfndkyp39i" class="animable"></path><path d="M270.91,234.7a3.47,3.47,0,0,0,3.14,0,1,1,0,0,0,0-1.81,3.47,3.47,0,0,0-3.14,0A1,1,0,0,0,270.91,234.7Z" style="fill: rgb(197, 63, 63); transform-origin: 272.48px 233.795px 0px;" id="elilgee4ey9tg" class="animable"></path><polygon points="282.27 216.65 313.23 234.53 314.68 233.69 283.72 215.82 282.27 216.65" style="fill: rgb(38, 50, 56); transform-origin: 298.475px 225.175px 0px;" id="el8dz97o774f9" class="animable"></polygon><polygon points="307.1 232.95 307.1 231.5 311.53 228.95 311.53 230.4 307.1 232.95" style="fill: rgb(197, 63, 63); transform-origin: 309.315px 230.95px 0px;" id="elcxr6lcj41j" class="animable"></polygon><g id="el4imykwu2cyt"><polygon points="307.1 232.95 307.1 231.5 311.53 228.95 311.53 230.4 307.1 232.95" style="opacity: 0.15; transform-origin: 309.315px 230.95px 0px;" class="animable"></polygon></g><polygon points="304.89 230.23 307.1 231.5 311.53 228.95 309.32 227.67 304.89 230.23" style="fill: rgb(197, 63, 63); transform-origin: 308.21px 229.585px 0px;" id="elucagg4brlfa" class="animable"></polygon><polygon points="304.89 231.67 307.1 232.95 307.1 231.5 304.89 230.23 304.89 231.67" style="fill: rgb(197, 63, 63); transform-origin: 305.995px 231.59px 0px;" id="elh22mpdgjrov" class="animable"></polygon><g id="elgyu1kqe3szf"><polygon points="304.89 231.67 307.1 232.95 307.1 231.5 304.89 230.23 304.89 231.67" style="opacity: 0.3; transform-origin: 305.995px 231.59px 0px;" class="animable"></polygon></g><polygon points="283.72 215.82 283.72 217.49 282.27 216.65 283.72 215.82" id="eli9jg3m01x1i" style="transform-origin: 282.995px 216.655px 0px;" class="animable"></polygon><polygon points="212.97 251.56 243.92 269.44 245.37 268.6 214.41 250.72 212.97 251.56" style="fill: rgb(38, 50, 56); transform-origin: 229.17px 260.08px 0px;" id="eljb0hu2ven1" class="animable"></polygon><polygon points="237.8 267.86 237.8 266.41 242.22 263.86 242.22 265.31 237.8 267.86" style="fill: rgb(197, 63, 63); transform-origin: 240.01px 265.86px 0px;" id="el9fnlxe3usd9" class="animable"></polygon><g id="el5n49tqyu3hd"><polygon points="237.8 267.86 237.8 266.41 242.22 263.86 242.22 265.31 237.8 267.86" style="opacity: 0.15; transform-origin: 240.01px 265.86px 0px;" class="animable"></polygon></g><polygon points="235.58 265.14 237.8 266.41 242.22 263.86 240.01 262.58 235.58 265.14" style="fill: rgb(197, 63, 63); transform-origin: 238.9px 264.495px 0px;" id="el6jd7lfawm4e" class="animable"></polygon><polygon points="235.59 266.58 237.8 267.86 237.8 266.41 235.58 265.14 235.59 266.58" style="fill: rgb(197, 63, 63); transform-origin: 236.69px 266.5px 0px;" id="elwnszgiv942l" class="animable"></polygon><g id="elgsjitasuc4h"><polygon points="235.59 266.58 237.8 267.86 237.8 266.41 235.58 265.14 235.59 266.58" style="opacity: 0.3; transform-origin: 236.69px 266.5px 0px;" class="animable"></polygon></g><polygon points="214.41 250.72 214.41 252.4 212.97 251.56 214.41 250.72" id="elb3fnipgwta" style="transform-origin: 213.69px 251.56px 0px;" class="animable"></polygon><polygon points="217.39 249.01 248.34 266.88 249.79 266.04 218.84 248.17 217.39 249.01" style="fill: rgb(38, 50, 56); transform-origin: 233.59px 257.525px 0px;" id="els6qxtbavlm" class="animable"></polygon><polygon points="233.37 260.2 233.37 258.75 237.8 256.2 237.8 257.65 233.37 260.2" style="fill: rgb(197, 63, 63); transform-origin: 235.585px 258.2px 0px;" id="elr7vxd1i7qs" class="animable"></polygon><g id="elbopcd4a3hsf"><polygon points="233.37 260.2 233.37 258.75 237.8 256.2 237.8 257.65 233.37 260.2" style="opacity: 0.15; transform-origin: 235.585px 258.2px 0px;" class="animable"></polygon></g><polygon points="231.16 257.48 233.37 258.75 237.8 256.2 235.59 254.92 231.16 257.48" style="fill: rgb(197, 63, 63); transform-origin: 234.48px 256.835px 0px;" id="elq2kljuuqnkd" class="animable"></polygon><polygon points="231.16 258.92 233.37 260.2 233.37 258.75 231.16 257.48 231.16 258.92" style="fill: rgb(197, 63, 63); transform-origin: 232.265px 258.84px 0px;" id="elbtiacsqd158" class="animable"></polygon><g id="elju4dvah0vyj"><polygon points="231.16 258.92 233.37 260.2 233.37 258.75 231.16 257.48 231.16 258.92" style="opacity: 0.3; transform-origin: 232.265px 258.84px 0px;" class="animable"></polygon></g><polygon points="218.84 248.17 218.84 249.84 217.39 249.01 218.84 248.17" id="eljwyjgyvddod" style="transform-origin: 218.115px 249.005px 0px;" class="animable"></polygon><polygon points="221.81 246.46 252.77 264.33 254.22 263.49 223.26 245.62 221.81 246.46" style="fill: rgb(38, 50, 56); transform-origin: 238.015px 254.975px 0px;" id="el0ymhfjmua52j" class="animable"></polygon><polygon points="244.85 261.72 244.85 260.27 249.28 257.72 249.28 259.17 244.85 261.72" style="fill: rgb(197, 63, 63); transform-origin: 247.065px 259.72px 0px;" id="elc3xytfcwd3p" class="animable"></polygon><g id="elfa0xcxxjw0e"><polygon points="244.85 261.72 244.85 260.27 249.28 257.72 249.28 259.17 244.85 261.72" style="opacity: 0.15; transform-origin: 247.065px 259.72px 0px;" class="animable"></polygon></g><polygon points="242.64 259 244.85 260.27 249.28 257.72 247.07 256.44 242.64 259" style="fill: rgb(197, 63, 63); transform-origin: 245.96px 258.355px 0px;" id="el17taxu9qwbk" class="animable"></polygon><polygon points="242.64 260.44 244.85 261.72 244.85 260.27 242.64 259 242.64 260.44" style="fill: rgb(197, 63, 63); transform-origin: 243.745px 260.36px 0px;" id="eloswr9w1tbmb" class="animable"></polygon><g id="el690bcwil4qp"><polygon points="242.64 260.44 244.85 261.72 244.85 260.27 242.64 259 242.64 260.44" style="opacity: 0.3; transform-origin: 243.745px 260.36px 0px;" class="animable"></polygon></g><polygon points="223.26 245.62 223.26 247.29 221.81 246.46 223.26 245.62" id="elyw611imngj" style="transform-origin: 222.535px 246.455px 0px;" class="animable"></polygon><polygon points="226.23 243.9 257.19 261.77 258.64 260.94 227.68 243.06 226.23 243.9" style="fill: rgb(38, 50, 56); transform-origin: 242.435px 252.415px 0px;" id="elbjk66l62ohd" class="animable"></polygon><polygon points="233.37 249.99 233.37 248.54 237.8 245.99 237.8 247.43 233.37 249.99" style="fill: rgb(197, 63, 63); transform-origin: 235.585px 247.99px 0px;" id="elqyfz9l8u53o" class="animable"></polygon><g id="el6wdc6gzyvhs"><polygon points="233.37 249.99 233.37 248.54 237.8 245.99 237.8 247.43 233.37 249.99" style="opacity: 0.15; transform-origin: 235.585px 247.99px 0px;" class="animable"></polygon></g><polygon points="231.16 247.27 233.37 248.54 237.8 245.99 235.59 244.71 231.16 247.27" style="fill: rgb(197, 63, 63); transform-origin: 234.48px 246.625px 0px;" id="el40ubeoevqga" class="animable"></polygon><polygon points="231.16 248.71 233.37 249.99 233.37 248.54 231.16 247.27 231.16 248.71" style="fill: rgb(197, 63, 63); transform-origin: 232.265px 248.63px 0px;" id="elk4axb69u87n" class="animable"></polygon><g id="elvnrvg62ibfk"><polygon points="231.16 248.71 233.37 249.99 233.37 248.54 231.16 247.27 231.16 248.71" style="opacity: 0.3; transform-origin: 232.265px 248.63px 0px;" class="animable"></polygon></g><polygon points="227.68 243.06 227.68 244.74 226.23 243.9 227.68 243.06" id="el701mshx2ev5" style="transform-origin: 226.955px 243.9px 0px;" class="animable"></polygon><path d="M250.28,277.05h0l-.23-3.81h-3.43L246.4,277h0a.94.94,0,0,0,.56.85,3.09,3.09,0,0,0,2.75,0A1,1,0,0,0,250.28,277.05Z" style="fill: rgb(197, 63, 63); transform-origin: 248.34px 275.706px 0px;" id="eld4y6930c6b" class="animable"></path><g id="el0v1fctymvbw"><path d="M250.28,277.05h0l-.23-3.81h-3.43L246.4,277h0a.94.94,0,0,0,.56.85,3.09,3.09,0,0,0,2.75,0A1,1,0,0,0,250.28,277.05Z" style="opacity: 0.2; transform-origin: 248.34px 275.706px 0px;" class="animable"></path></g><path d="M247.13,274a.74.74,0,0,1,0-1.4,2.67,2.67,0,0,1,2.43,0,.74.74,0,0,1,0,1.4A2.67,2.67,0,0,1,247.13,274Z" style="fill: rgb(197, 63, 63); transform-origin: 248.345px 273.3px 0px;" id="elb96rs1oyvec" class="animable"></path><path d="M256.08,273.71h0l-.23-3.8h-3.43l-.23,3.78h0a.9.9,0,0,0,.56.85,3,3,0,0,0,2.75,0A.94.94,0,0,0,256.08,273.71Z" style="fill: rgb(197, 63, 63); transform-origin: 254.135px 272.392px 0px;" id="el8mgg5isdarg" class="animable"></path><g id="el7aq2xsb1cd6"><path d="M256.08,273.71h0l-.23-3.8h-3.43l-.23,3.78h0a.9.9,0,0,0,.56.85,3,3,0,0,0,2.75,0A.94.94,0,0,0,256.08,273.71Z" style="opacity: 0.2; transform-origin: 254.135px 272.392px 0px;" class="animable"></path></g><path d="M252.93,270.65a.74.74,0,0,1,0-1.4,2.73,2.73,0,0,1,2.43,0,.74.74,0,0,1,0,1.4A2.67,2.67,0,0,1,252.93,270.65Z" style="fill: rgb(197, 63, 63); transform-origin: 254.145px 269.954px 0px;" id="elpoq6y438msg" class="animable"></path><path d="M261.88,270.38h0l-.23-3.81h-3.42l-.23,3.79h0a1,1,0,0,0,.56.85,3,3,0,0,0,2.75,0A1,1,0,0,0,261.88,270.38Z" style="fill: rgb(197, 63, 63); transform-origin: 259.94px 269.057px 0px;" id="el1zbgk17ml4o" class="animable"></path><g id="el01xibhqvgdg1"><path d="M261.88,270.38h0l-.23-3.81h-3.42l-.23,3.79h0a1,1,0,0,0,.56.85,3,3,0,0,0,2.75,0A1,1,0,0,0,261.88,270.38Z" style="opacity: 0.2; transform-origin: 259.94px 269.057px 0px;" class="animable"></path></g><path d="M258.73,267.32a.74.74,0,0,1,0-1.4,2.65,2.65,0,0,1,2.42,0,.74.74,0,0,1,0,1.4A2.65,2.65,0,0,1,258.73,267.32Z" style="fill: rgb(197, 63, 63); transform-origin: 259.94px 266.62px 0px;" id="elecx3iho4xsd" class="animable"></path><path d="M267.68,267h0l-.23-3.8H264L263.8,267h0a.94.94,0,0,0,.56.84,3,3,0,0,0,2.75,0A1,1,0,0,0,267.68,267Z" style="fill: rgb(197, 63, 63); transform-origin: 265.74px 265.687px 0px;" id="el4445oywd58j" class="animable"></path><g id="el5vl7zza7dhk"><path d="M267.68,267h0l-.23-3.8H264L263.8,267h0a.94.94,0,0,0,.56.84,3,3,0,0,0,2.75,0A1,1,0,0,0,267.68,267Z" style="opacity: 0.2; transform-origin: 265.74px 265.687px 0px;" class="animable"></path></g><ellipse cx="265.74" cy="263.28" rx="1.72" ry="0.99" style="fill: rgb(197, 63, 63); transform-origin: 265.74px 263.28px 0px;" id="elv2w76s3ddr" class="animable"></ellipse><path d="M261.9,277.07h0l-.22-3.8h-3.43l-.23,3.78h0a.93.93,0,0,0,.57.85,3,3,0,0,0,2.75,0A.94.94,0,0,0,261.9,277.07Z" style="fill: rgb(197, 63, 63); transform-origin: 259.96px 275.752px 0px;" id="el9gxm850doq9" class="animable"></path><g id="elk533h4jg08k"><path d="M261.9,277.07h0l-.22-3.8h-3.43l-.23,3.78h0a.93.93,0,0,0,.57.85,3,3,0,0,0,2.75,0A.94.94,0,0,0,261.9,277.07Z" style="opacity: 0.2; transform-origin: 259.96px 275.752px 0px;" class="animable"></path></g><path d="M258.75,274a.74.74,0,0,1,0-1.4,2.71,2.71,0,0,1,2.42,0,.74.74,0,0,1,0,1.4A2.65,2.65,0,0,1,258.75,274Z" style="fill: rgb(197, 63, 63); transform-origin: 259.96px 273.304px 0px;" id="elx3h0j1hw7g" class="animable"></path><path d="M267.7,273.74h0l-.23-3.81H264l-.22,3.79h0a1,1,0,0,0,.56.85,3.09,3.09,0,0,0,2.75,0A1,1,0,0,0,267.7,273.74Z" style="fill: rgb(197, 63, 63); transform-origin: 265.74px 272.411px 0px;" id="elryzcwvup8fn" class="animable"></path><g id="elg51oq81k7lh"><path d="M267.7,273.74h0l-.23-3.81H264l-.22,3.79h0a1,1,0,0,0,.56.85,3.09,3.09,0,0,0,2.75,0A1,1,0,0,0,267.7,273.74Z" style="opacity: 0.2; transform-origin: 265.74px 272.411px 0px;" class="animable"></path></g><path d="M264.54,270.68a.74.74,0,0,1,0-1.4,2.67,2.67,0,0,1,2.43,0,.74.74,0,0,1,0,1.4A2.67,2.67,0,0,1,264.54,270.68Z" style="fill: rgb(197, 63, 63); transform-origin: 265.755px 269.98px 0px;" id="eli4tjq10c8f" class="animable"></path><path d="M273.49,270.4h0l-.23-3.8h-3.43l-.23,3.79h0a.94.94,0,0,0,.56.84,3,3,0,0,0,2.75,0A.92.92,0,0,0,273.49,270.4Z" style="fill: rgb(197, 63, 63); transform-origin: 271.545px 269.082px 0px;" id="el3rsddnwa5xz" class="animable"></path><g id="elyuqzy85jd"><path d="M273.49,270.4h0l-.23-3.8h-3.43l-.23,3.79h0a.94.94,0,0,0,.56.84,3,3,0,0,0,2.75,0A.92.92,0,0,0,273.49,270.4Z" style="opacity: 0.2; transform-origin: 271.545px 269.082px 0px;" class="animable"></path></g><path d="M270.34,267.34a.74.74,0,0,1,0-1.4,2.73,2.73,0,0,1,2.43,0,.74.74,0,0,1,0,1.4A2.67,2.67,0,0,1,270.34,267.34Z" style="fill: rgb(197, 63, 63); transform-origin: 271.555px 266.644px 0px;" id="elbm69nfwqabv" class="animable"></path><path d="M273.47,263.71h0l-.23-3.81h-3.43l-.23,3.79h0a.92.92,0,0,0,.56.85,3,3,0,0,0,2.75,0A.92.92,0,0,0,273.47,263.71Z" style="fill: rgb(197, 63, 63); transform-origin: 271.525px 262.387px 0px;" id="ell7d2czbhndk" class="animable"></path><g id="el889pszt2elw"><path d="M273.47,263.71h0l-.23-3.81h-3.43l-.23,3.79h0a.92.92,0,0,0,.56.85,3,3,0,0,0,2.75,0A.92.92,0,0,0,273.47,263.71Z" style="opacity: 0.2; transform-origin: 271.525px 262.387px 0px;" class="animable"></path></g><path d="M270.32,260.65a.74.74,0,0,1,0-1.4,2.67,2.67,0,0,1,2.43,0,.74.74,0,0,1,0,1.4A2.67,2.67,0,0,1,270.32,260.65Z" style="fill: rgb(197, 63, 63); transform-origin: 271.535px 259.95px 0px;" id="elevidcau1cj" class="animable"></path><path d="M190.85,300.07h0l.23-3.8h3.43l.22,3.79h0a.94.94,0,0,1-.56.84,3,3,0,0,1-2.75,0A.94.94,0,0,1,190.85,300.07Z" style="fill: rgb(197, 63, 63); transform-origin: 192.79px 298.752px 0px;" id="eld92bcznri7p" class="animable"></path><g id="elv138jy9lj9"><path d="M190.85,300.07h0l.23-3.8h3.43l.22,3.79h0a.94.94,0,0,1-.56.84,3,3,0,0,1-2.75,0A.94.94,0,0,1,190.85,300.07Z" style="opacity: 0.2; transform-origin: 192.79px 298.752px 0px;" class="animable"></path></g><path d="M194,297a.74.74,0,0,0,0-1.4,2.67,2.67,0,0,0-2.43,0,.74.74,0,0,0,0,1.4A2.73,2.73,0,0,0,194,297Z" style="fill: rgb(197, 63, 63); transform-origin: 192.785px 296.296px 0px;" id="el5ohw69y9388" class="animable"></path><path d="M185.06,296.74h0l.23-3.8h3.43l.23,3.78h0a.94.94,0,0,1-.56.85,3,3,0,0,1-2.75,0A.92.92,0,0,1,185.06,296.74Z" style="fill: rgb(197, 63, 63); transform-origin: 187.005px 295.422px 0px;" id="elmc6znnt6ph" class="animable"></path><g id="elp48qjh6kkyh"><path d="M185.06,296.74h0l.23-3.8h3.43l.23,3.78h0a.94.94,0,0,1-.56.85,3,3,0,0,1-2.75,0A.92.92,0,0,1,185.06,296.74Z" style="opacity: 0.2; transform-origin: 187.005px 295.422px 0px;" class="animable"></path></g><path d="M188.21,293.68a.74.74,0,0,0,0-1.4,2.67,2.67,0,0,0-2.43,0,.74.74,0,0,0,0,1.4A2.67,2.67,0,0,0,188.21,293.68Z" style="fill: rgb(197, 63, 63); transform-origin: 186.995px 292.98px 0px;" id="elslqvgwhsl8b" class="animable"></path><path d="M179.26,293.4h0l.23-3.8h3.43l.23,3.79h0a.94.94,0,0,1-.56.85,3.09,3.09,0,0,1-2.75,0A.94.94,0,0,1,179.26,293.4Z" style="fill: rgb(197, 63, 63); transform-origin: 181.205px 292.081px 0px;" id="el0y1idxmiwnok" class="animable"></path><g id="el1204bc1mgwy9"><path d="M179.26,293.4h0l.23-3.8h3.43l.23,3.79h0a.94.94,0,0,1-.56.85,3.09,3.09,0,0,1-2.75,0A.94.94,0,0,1,179.26,293.4Z" style="opacity: 0.2; transform-origin: 181.205px 292.081px 0px;" class="animable"></path></g><path d="M182.41,290.35a.74.74,0,0,0,0-1.4,2.67,2.67,0,0,0-2.43,0,.74.74,0,0,0,0,1.4A2.67,2.67,0,0,0,182.41,290.35Z" style="fill: rgb(197, 63, 63); transform-origin: 181.195px 289.65px 0px;" id="eln3m4a48nnok" class="animable"></path><path d="M173.46,290.07h0l.23-3.8h3.43l.23,3.78h0a.9.9,0,0,1-.56.85,3,3,0,0,1-2.75,0A.94.94,0,0,1,173.46,290.07Z" style="fill: rgb(197, 63, 63); transform-origin: 175.405px 288.752px 0px;" id="elpa90stxb0r" class="animable"></path><g id="elmpdyv07xjlr"><path d="M173.46,290.07h0l.23-3.8h3.43l.23,3.78h0a.9.9,0,0,1-.56.85,3,3,0,0,1-2.75,0A.94.94,0,0,1,173.46,290.07Z" style="opacity: 0.2; transform-origin: 175.405px 288.752px 0px;" class="animable"></path></g><path d="M176.61,287a.74.74,0,0,0,0-1.4,2.73,2.73,0,0,0-2.43,0,.74.74,0,0,0,0,1.4A2.67,2.67,0,0,0,176.61,287Z" style="fill: rgb(197, 63, 63); transform-origin: 175.395px 286.304px 0px;" id="ellzgchj2t33" class="animable"></path><path d="M167.66,286.74h0l.23-3.81h3.42l.23,3.79h0a1,1,0,0,1-.57.85,3.09,3.09,0,0,1-2.75,0A.94.94,0,0,1,167.66,286.74Z" style="fill: rgb(197, 63, 63); transform-origin: 169.6px 285.411px 0px;" id="elstmld61azsm" class="animable"></path><g id="elakbw39vtj89"><path d="M167.66,286.74h0l.23-3.81h3.42l.23,3.79h0a1,1,0,0,1-.57.85,3.09,3.09,0,0,1-2.75,0A.94.94,0,0,1,167.66,286.74Z" style="opacity: 0.2; transform-origin: 169.6px 285.411px 0px;" class="animable"></path></g><path d="M170.81,283.68a.74.74,0,0,0,0-1.4,2.65,2.65,0,0,0-2.42,0,.74.74,0,0,0,0,1.4A2.65,2.65,0,0,0,170.81,283.68Z" style="fill: rgb(197, 63, 63); transform-origin: 169.6px 282.98px 0px;" id="elsxft7ct9p49" class="animable"></path><path d="M205.67,306.07a1,1,0,0,0,0-1.8,3.45,3.45,0,0,0-3.1,0,1,1,0,0,0,0,1.8A3.45,3.45,0,0,0,205.67,306.07Z" style="fill: rgb(197, 63, 63); transform-origin: 204.12px 305.17px 0px;" id="elda348jfdac" class="animable"></path><path d="M161.45,280.54a1,1,0,0,0,0-1.79,3.45,3.45,0,0,0-3.1,0c-.86.5-.86,1.3,0,1.79A3.39,3.39,0,0,0,161.45,280.54Z" style="fill: rgb(197, 63, 63); transform-origin: 159.854px 279.649px 0px;" id="el1bjkvcrhyrq" class="animable"></path><path d="M320.57,239.69a1,1,0,0,0,0-1.8,3.45,3.45,0,0,0-3.1,0,1,1,0,0,0,0,1.8A3.45,3.45,0,0,0,320.57,239.69Z" style="fill: rgb(197, 63, 63); transform-origin: 319.02px 238.79px 0px;" id="elk3ye14zbrc" class="animable"></path><path d="M276.35,214.16c.86-.49.86-1.29,0-1.79a3.45,3.45,0,0,0-3.1,0c-.86.5-.86,1.3,0,1.79A3.39,3.39,0,0,0,276.35,214.16Z" style="fill: rgb(197, 63, 63); transform-origin: 274.8px 213.269px 0px;" id="eleb7gpo4t5um" class="animable"></path></g><g id="freepik--arm--inject-16" style="transform-origin: 170.905px 239.921px 0px;" class="animable"><path d="M192.23,253.48c-1.53-1.84-3.08-3.64-4.47-5.65-.61-.87-1.19-1.77-1.83-2.61a17.51,17.51,0,0,0-3.54-3.5c-1.3-.94-2.72-1.36-3.83-2.62a14,14,0,0,1-2.68-4.61c-4-10.92-7.38-29.22-7.38-29.22l-19.47,11c2.91,6.49,7.08,14,11.95,24.25a58.92,58.92,0,0,1,4.07,11.76c.95,3.89,2.19,8.72,3.38,12.23.61,1.78,1.54,5.62,3.83,5.16a.84.84,0,0,0,.48-.27c.57-.72.09-2.82,0-3.66a39.28,39.28,0,0,0-.66-4.05c-.06-.26-.56-3.06.24-2.32a6,6,0,0,1,1.13,1.73,102.73,102.73,0,0,0,5.4,9.37,6.08,6.08,0,0,0,2.16,2.3,2.64,2.64,0,0,0,2.31,0,.86.86,0,0,1,.39-.13c.2,0,.34.21.47.37a4,4,0,0,0,3.22,1.56,1.66,1.66,0,0,0,1.17-.42,2.09,2.09,0,0,0,.51-2.34,1.9,1.9,0,0,0,2-.8,2.8,2.8,0,0,0,.12-2.41,19.53,19.53,0,0,0-.71-2.12c-1.27-3.28-3-7.56-4.21-10.35-.31-.71-.74-1.78-1.16-2.87.45.41.87.87,1.34,1.22a8.48,8.48,0,0,0,2.87,1.46,4.23,4.23,0,0,0,2.39,0,1.4,1.4,0,0,0,1.06-1.33A1.92,1.92,0,0,0,192.23,253.48Z" style="fill: rgb(255, 189, 167); transform-origin: 170.905px 239.921px 0px;" id="elv7clzgssz69" class="animable"></path><path d="M180.87,263.39c-1.31-2.53-3.18-6.15-4.59-8.57q1,2.22,2,4.41l2.15,4.35,2.23,4.31c.51,1.3,1.88,3.13,1,4.48.62-.61.42-1.59.22-2.34A52.21,52.21,0,0,0,180.87,263.39Zm0-9.44c2.35,5.8,5.22,12.06,8.09,17.61C186.65,265.76,183.78,259.51,180.9,254Zm5.56.51.15.1c-.58-1.22-1.09-2.57-1.87-4.06a19.3,19.3,0,0,0-2.38-3.74,44.27,44.27,0,0,1,2.76,6.48C185.57,253.65,186,254.11,186.46,254.46Z" style="fill: rgb(240, 153, 122); transform-origin: 182.62px 259.565px 0px;" id="eldh6wr1yznbc" class="animable"></path></g></g></g><g id="freepik--Speaker--inject-16" style="transform-origin: 111.75px 391.945px 0px;" class="animable"><g id="freepik--speaker--inject-16" style="transform-origin: 111.75px 391.945px 0px;" class="animable"><path d="M113.49,317.88l-44.34,25.6A9.62,9.62,0,0,0,64.8,351v88.9a9.63,9.63,0,0,0,4.35,7.54L101.25,466a9.6,9.6,0,0,0,8.7,0l44.35-25.6a9.62,9.62,0,0,0,4.35-7.53V344a9.63,9.63,0,0,0-4.35-7.54l-32.11-18.53A9.6,9.6,0,0,0,113.49,317.88Z" style="fill: rgb(55, 71, 79); transform-origin: 111.725px 391.952px 0px;" id="el982gpjl4fs9" class="animable"></path><path d="M110,367l44.35-25.6c2.4-1.39,4.35-.27,4.35,2.51v88.9a9.62,9.62,0,0,1-4.35,7.53L110,466c-2.4,1.39-4.35.27-4.35-2.51v-88.9A9.62,9.62,0,0,1,110,367Z" style="fill: rgb(69, 90, 100); transform-origin: 132.175px 403.7px 0px;" id="elq6l7lnps6q" class="animable"></path><path d="M101.25,367,69.15,348.5c-2.4-1.38-4.35-.26-4.35,2.51v88.9a9.63,9.63,0,0,0,4.35,7.54L101.25,466c2.41,1.39,4.35.27,4.35-2.51v-88.9A9.6,9.6,0,0,0,101.25,367Z" style="fill: rgb(38, 50, 56); transform-origin: 85.2px 407.253px 0px;" id="el1wo2lv3ubzxj" class="animable"></path><path d="M122.19,317.88l32.11,18.53c2.4,1.39,2.4,3.64,0,5L110,367a9.6,9.6,0,0,1-8.7,0L69.15,348.5c-2.4-1.38-2.4-3.63,0-5l44.34-25.6A9.6,9.6,0,0,1,122.19,317.88Z" style="fill: rgb(55, 71, 79); transform-origin: 111.725px 342.445px 0px;" id="elemgqmcmaunl" class="animable"></path><path d="M132.13,443.65c10.08-5.83,18.26-20,18.26-31.64s-8.18-16.37-18.26-10.55-18.27,20-18.27,31.64S122,449.47,132.13,443.65Z" style="fill: rgb(38, 50, 56); transform-origin: 132.125px 422.555px 0px;" id="elodtkw4q4mvo" class="animable"></path><path d="M132.13,441.54c9.07-5.25,16.43-18,16.43-28.47s-7.36-14.73-16.43-9.49-16.44,18-16.44,28.47S123.05,446.78,132.13,441.54Z" style="fill: rgb(55, 71, 79); transform-origin: 132.125px 422.56px 0px;" id="el6040bibeti6" class="animable"></path><path d="M132.13,433.64c5.3-3.06,9.59-10.5,9.59-16.62s-4.29-8.6-9.59-5.54-9.6,10.5-9.6,16.62S126.83,436.7,132.13,433.64Z" style="fill: rgb(197, 63, 63); transform-origin: 132.125px 422.56px 0px;" id="elr5q5ruxddq" class="animable"></path><path d="M132.13,425.85a6.31,6.31,0,0,0,2.85-4.94c0-1.82-1.28-2.55-2.85-1.64a6.25,6.25,0,0,0-2.85,4.93C129.28,426,130.55,426.76,132.13,425.85Z" style="fill: rgb(197, 63, 63); transform-origin: 132.13px 422.557px 0px;" id="elywpfse7si9" class="animable"></path><g id="el9ce6yck81wq"><path d="M132.13,425.85a6.31,6.31,0,0,0,2.85-4.94c0-1.82-1.28-2.55-2.85-1.64a6.25,6.25,0,0,0-2.85,4.93C129.28,426,130.55,426.76,132.13,425.85Z" style="fill: rgb(255, 255, 255); opacity: 0.3; transform-origin: 132.13px 422.557px 0px;" class="animable"></path></g><path d="M132.13,394.7c7.44-4.29,13.47-14.74,13.47-23.33s-6-12.07-13.47-7.78-13.47,14.75-13.47,23.34S124.69,399,132.13,394.7Z" style="fill: rgb(38, 50, 56); transform-origin: 132.13px 379.148px 0px;" id="el60d4aoa6q43" class="animable"></path><path d="M132.13,393.15c6.69-3.87,12.12-13.27,12.12-21s-5.43-10.86-12.12-7S120,378.42,120,386.15,125.43,397,132.13,393.15Z" style="fill: rgb(55, 71, 79); transform-origin: 132.125px 379.148px 0px;" id="el3frrisy87oz" class="animable"></path><path d="M132.13,387.32a15.66,15.66,0,0,0,7.07-12.26c0-4.51-3.17-6.34-7.07-4.08a15.62,15.62,0,0,0-7.08,12.25C125.05,387.75,128.22,389.58,132.13,387.32Z" style="fill: rgb(197, 63, 63); transform-origin: 132.125px 379.15px 0px;" id="el7am3gt1noi" class="animable"></path><path d="M132.13,381.58a4.65,4.65,0,0,0,2.1-3.64c0-1.34-.94-1.89-2.1-1.22a4.66,4.66,0,0,0-2.11,3.64C130,381.7,131,382.25,132.13,381.58Z" style="fill: rgb(197, 63, 63); transform-origin: 132.125px 379.15px 0px;" id="el4hbp1kyfuys" class="animable"></path><g id="elow5ym04nbha"><path d="M132.13,381.58a4.65,4.65,0,0,0,2.1-3.64c0-1.34-.94-1.89-2.1-1.22a4.66,4.66,0,0,0-2.11,3.64C130,381.7,131,382.25,132.13,381.58Z" style="fill: rgb(255, 255, 255); opacity: 0.3; transform-origin: 132.125px 379.15px 0px;" class="animable"></path></g><path d="M153.9,346.38a3.44,3.44,0,0,0-1.56,2.7c0,1,.7,1.39,1.56.89a3.42,3.42,0,0,0,1.55-2.69C155.45,346.29,154.76,345.89,153.9,346.38Z" style="fill: rgb(38, 50, 56); transform-origin: 153.895px 348.179px 0px;" id="elwpo6i63wfxt" class="animable"></path><path d="M111.24,371a3.44,3.44,0,0,0-1.56,2.7c0,1,.7,1.39,1.56.89a3.42,3.42,0,0,0,1.55-2.69C112.79,370.93,112.1,370.53,111.24,371Z" style="fill: rgb(38, 50, 56); transform-origin: 111.235px 372.805px 0px;" id="els6da9uleez" class="animable"></path><path d="M153.9,432.29a3.46,3.46,0,0,0-1.56,2.7c0,1,.7,1.39,1.56.9a3.45,3.45,0,0,0,1.55-2.7C155.45,432.2,154.76,431.8,153.9,432.29Z" style="fill: rgb(38, 50, 56); transform-origin: 153.895px 434.091px 0px;" id="el7qmkj4odxi3" class="animable"></path><path d="M111.24,456.94a3.43,3.43,0,0,0-1.56,2.69c0,1,.7,1.39,1.56.9a3.45,3.45,0,0,0,1.55-2.7C112.79,456.84,112.1,456.44,111.24,456.94Z" style="fill: rgb(38, 50, 56); transform-origin: 111.235px 458.733px 0px;" id="el67zyth3rs4x" class="animable"></path><path d="M81.39,421.53l7.62,4.4c2.41,1.39,4.35.27,4.35-2.51V400.49A9.6,9.6,0,0,0,89,393l-7.62-4.4c-2.4-1.38-4.35-.26-4.35,2.51V414A9.61,9.61,0,0,0,81.39,421.53Z" style="fill: rgb(55, 71, 79); transform-origin: 85.195px 407.268px 0px;" id="el7rbdwnc5vxk" class="animable"></path><path d="M79.08,392.62c0-1.67,1.17-2.34,2.61-1.51l7,4.05a5.79,5.79,0,0,1,2.61,4.52v4.06l-12.24-7.07Z" style="fill: rgb(38, 50, 56); transform-origin: 85.18px 397.247px 0px;" id="el11vfr3btmjr" class="animable"></path><path d="M91.32,421.87c0,1.67-1.17,2.34-2.61,1.51l-7-4.06a5.76,5.76,0,0,1-2.61-4.52v-4.05l12.24,7.07Z" style="fill: rgb(38, 50, 56); transform-origin: 85.22px 417.243px 0px;" id="elgfhqeafu2" class="animable"></path></g></g><g id="freepik--musical-notes--inject-16" style="transform-origin: 189.03px 187.921px 0px;" class="animable"><g id="freepik--musical-notes--inject-16" style="transform-origin: 189.03px 187.921px 0px;" class="animable"><g id="freepik--musical-notes--inject-16" style="transform-origin: 189.03px 187.921px 0px;" class="animable"><path id="freepik--musical-note--inject-16" d="M313.08,136.43l-.64,9a2.24,2.24,0,0,0-.78-.2,2.37,2.37,0,1,0,2.2,2.53l.58-8.1,8.3-1.57h0l-.55,8a2.3,2.3,0,0,0-.78-.2,2.37,2.37,0,1,0,2.2,2.53h0l.92-13.4Z" style="fill: rgb(197, 63, 63); transform-origin: 316.828px 142.822px 0px;" class="animable"></path><path id="freepik--musical-note--inject-16" d="M116.1,163l-4.35,8.79a2.61,2.61,0,0,0-.7-.52,2.57,2.57,0,1,0,1.17,3.44l3.91-7.88,9,1.84h0l-3.85,7.82a2.41,2.41,0,0,0-.7-.52,2.56,2.56,0,1,0,1.16,3.44h0l6.43-13.05Z" style="fill: rgb(197, 63, 63); transform-origin: 117.757px 171.914px 0px;" class="animable"></path><path id="freepik--musical-note--inject-16" d="M120.45,223.4l1.47,8.28a2,2,0,0,0-.74,0,2.19,2.19,0,0,0-1.78,2.55,2.2,2.2,0,1,0,4.33-.78L122.41,226l7.12-3.29h0l1.32,7.35a2,2,0,0,0-.74,0,2.2,2.2,0,1,0,2.55,1.77h0l-2.2-12.27Z" style="fill: rgb(197, 63, 63); transform-origin: 126.03px 227.813px 0px;" class="animable"></path><path id="freepik--musical-note--inject-16" d="M271.79,177.59a4,4,0,0,1,1.71.39,8.81,8.81,0,0,1,2,1.29,15.37,15.37,0,0,0,2.53,1.88,3.91,3.91,0,0,0,3.05.41,4.09,4.09,0,0,1-1.52-1c-1-1.08-1.34-2.87-2.1-4.14-1.13-1.89-2.82-2.64-5.1-3.15-.86,1.72-1.78,3.43-2.66,5.15l-2.1,4c-.06.13-1,1.81-1,1.81a4.13,4.13,0,0,0-1.33-1.13,3.25,3.25,0,1,0,1.4,4.38Z" style="fill: rgb(197, 63, 63); transform-origin: 270.806px 181.255px 0px;" class="animable"></path><path id="freepik--musical-note--inject-16" d="M57.11,249.81a4.23,4.23,0,0,1,1.09-1.33,9.37,9.37,0,0,1,2-1.15,15.67,15.67,0,0,0,2.74-1.39,3.8,3.8,0,0,0,1.68-2.48,3.77,3.77,0,0,1-1.56.87c-1.38.4-3.09-.08-4.53,0-2.14.16-3.53,1.3-5,3.07,1.13,1.51,2.22,3,3.33,4.57l2.61,3.58,1.14,1.66a3.84,3.84,0,0,0-1.56.66,3.17,3.17,0,1,0,4.43.69Z" style="fill: rgb(197, 63, 63); transform-origin: 59.075px 253.53px 0px;" class="animable"></path><path id="freepik--musical-note--inject-16" d="M273.59,117.81a4.43,4.43,0,0,1,1.56-1.1,9.58,9.58,0,0,1,2.47-.65,17.43,17.43,0,0,0,3.36-.69,4.27,4.27,0,0,0,2.54-2.16,4.51,4.51,0,0,1-1.94.47c-1.6,0-3.3-1-4.87-1.31-2.35-.46-4.18.36-6.24,1.84.76,2,1.48,3.92,2.22,5.88l1.74,4.62c.06.15.74,2.12.74,2.12a4.32,4.32,0,0,0-1.87.24,3.53,3.53,0,1,0,4.55,2.05Z" style="fill: rgb(197, 63, 63); transform-origin: 276.995px 123.072px 0px;" class="animable"></path></g><g id="freepik--musical-notes--inject-16"><g style="opacity: 0.5; transform-origin: 189.03px 187.921px 0px;" class="animable"><path id="freepik--musical-note--inject-16" d="M313.08,136.43l-.64,9a2.24,2.24,0,0,0-.78-.2,2.37,2.37,0,1,0,2.2,2.53l.58-8.1,8.3-1.57h0l-.55,8a2.3,2.3,0,0,0-.78-.2,2.37,2.37,0,1,0,2.2,2.53h0l.92-13.4Z" style="fill: rgb(255, 255, 255); transform-origin: 316.828px 142.822px 0px;" class="animable"></path><path id="freepik--musical-note--inject-16" d="M116.1,163l-4.35,8.79a2.61,2.61,0,0,0-.7-.52,2.57,2.57,0,1,0,1.17,3.44l3.91-7.88,9,1.84h0l-3.85,7.82a2.41,2.41,0,0,0-.7-.52,2.56,2.56,0,1,0,1.16,3.44h0l6.43-13.05Z" style="fill: rgb(255, 255, 255); transform-origin: 117.757px 171.914px 0px;" class="animable"></path><path id="freepik--musical-note--inject-16" d="M120.45,223.4l1.47,8.28a2,2,0,0,0-.74,0,2.19,2.19,0,0,0-1.78,2.55,2.2,2.2,0,1,0,4.33-.78L122.41,226l7.12-3.29h0l1.32,7.35a2,2,0,0,0-.74,0,2.2,2.2,0,1,0,2.55,1.77h0l-2.2-12.27Z" style="fill: rgb(255, 255, 255); transform-origin: 126.03px 227.813px 0px;" class="animable"></path><path id="freepik--musical-note--inject-16" d="M271.79,177.59a4,4,0,0,1,1.71.39,8.81,8.81,0,0,1,2,1.29,15.37,15.37,0,0,0,2.53,1.88,3.91,3.91,0,0,0,3.05.41,4.09,4.09,0,0,1-1.52-1c-1-1.08-1.34-2.87-2.1-4.14-1.13-1.89-2.82-2.64-5.1-3.15-.86,1.72-1.78,3.43-2.66,5.15l-2.1,4c-.06.13-1,1.81-1,1.81a4.13,4.13,0,0,0-1.33-1.13,3.25,3.25,0,1,0,1.4,4.38Z" style="fill: rgb(255, 255, 255); transform-origin: 270.806px 181.255px 0px;" class="animable"></path><path id="freepik--musical-note--inject-16" d="M57.11,249.81a4.23,4.23,0,0,1,1.09-1.33,9.37,9.37,0,0,1,2-1.15,15.67,15.67,0,0,0,2.74-1.39,3.8,3.8,0,0,0,1.68-2.48,3.77,3.77,0,0,1-1.56.87c-1.38.4-3.09-.08-4.53,0-2.14.16-3.53,1.3-5,3.07,1.13,1.51,2.22,3,3.33,4.57l2.61,3.58,1.14,1.66a3.84,3.84,0,0,0-1.56.66,3.17,3.17,0,1,0,4.43.69Z" style="fill: rgb(255, 255, 255); transform-origin: 59.075px 253.53px 0px;" class="animable"></path><path id="freepik--musical-note--inject-16" d="M273.59,117.81a4.43,4.43,0,0,1,1.56-1.1,9.58,9.58,0,0,1,2.47-.65,17.43,17.43,0,0,0,3.36-.69,4.27,4.27,0,0,0,2.54-2.16,4.51,4.51,0,0,1-1.94.47c-1.6,0-3.3-1-4.87-1.31-2.35-.46-4.18.36-6.24,1.84.76,2,1.48,3.92,2.22,5.88l1.74,4.62c.06.15.74,2.12.74,2.12a4.32,4.32,0,0,0-1.87.24,3.53,3.53,0,1,0,4.55,2.05Z" style="fill: rgb(255, 255, 255); transform-origin: 276.995px 123.072px 0px;" class="animable"></path></g></g></g></g><g id="freepik--Circles--inject-16" style="transform-origin: 252.65px 127.541px 0px;" class="animable"><g id="freepik--circles--inject-16" style="transform-origin: 252.65px 127.541px 0px;" class="animable"><path d="M458.57,180.55a6.32,6.32,0,1,1,6.31-6.32A6.32,6.32,0,0,1,458.57,180.55Zm0-11.63a5.32,5.32,0,1,0,5.31,5.31A5.31,5.31,0,0,0,458.57,168.92Z" style="fill: rgb(224, 224, 224); transform-origin: 458.56px 174.23px 0px;" id="elbjsjw4n1kpu" class="animable"></path><path d="M384.64,55.86A6.31,6.31,0,1,1,391,49.55,6.32,6.32,0,0,1,384.64,55.86Zm0-11.62A5.31,5.31,0,1,0,390,49.55,5.31,5.31,0,0,0,384.64,44.24Z" style="fill: rgb(224, 224, 224); transform-origin: 384.69px 49.5502px 0px;" id="elsn2hn3tvz2f" class="animable"></path><path d="M418.35,123.08a6.32,6.32,0,1,1,6.32-6.32A6.32,6.32,0,0,1,418.35,123.08Zm0-11.63a5.32,5.32,0,1,0,5.32,5.31A5.31,5.31,0,0,0,418.35,111.45Z" style="fill: rgb(224, 224, 224); transform-origin: 418.35px 116.76px 0px;" id="elk2vreu0eq8b" class="animable"></path><path d="M48.55,95.6a6.32,6.32,0,1,1,6.32-6.31A6.32,6.32,0,0,1,48.55,95.6Zm0-11.63a5.32,5.32,0,1,0,5.32,5.32A5.32,5.32,0,0,0,48.55,84Z" style="fill: rgb(224, 224, 224); transform-origin: 48.5499px 89.2799px 0px;" id="el8jpu5t8y6r8" class="animable"></path><path d="M168,52.28A6.32,6.32,0,1,1,174.33,46,6.32,6.32,0,0,1,168,52.28Zm0-11.63A5.32,5.32,0,1,0,173.33,46,5.32,5.32,0,0,0,168,40.65Z" style="fill: rgb(224, 224, 224); transform-origin: 168.01px 45.9599px 0px;" id="elfzb0rts80xq" class="animable"></path><path d="M120.56,109.91a6.32,6.32,0,1,1,6.32-6.31A6.32,6.32,0,0,1,120.56,109.91Zm0-11.63a5.32,5.32,0,1,0,5.32,5.32A5.32,5.32,0,0,0,120.56,98.28Z" style="fill: rgb(224, 224, 224); transform-origin: 120.56px 103.59px 0px;" id="el0vi52zlekir" class="animable"></path><path d="M46.74,198.16a6.32,6.32,0,1,1,6.32-6.32A6.32,6.32,0,0,1,46.74,198.16Zm0-11.63a5.32,5.32,0,1,0,5.32,5.31A5.31,5.31,0,0,0,46.74,186.53Z" style="fill: rgb(224, 224, 224); transform-origin: 46.74px 191.84px 0px;" id="elcsjblpb2ve" class="animable"></path><path d="M324.54,93.92a6.32,6.32,0,1,1,6.31-6.31A6.32,6.32,0,0,1,324.54,93.92Zm0-11.63a5.32,5.32,0,1,0,5.31,5.32A5.32,5.32,0,0,0,324.54,82.29Z" style="fill: rgb(224, 224, 224); transform-origin: 324.53px 87.5999px 0px;" id="el69evfma36tc" class="animable"></path><path d="M363.87,123.43a.45.45,0,0,1-.45-.44v-3.22a.45.45,0,0,1,.89,0V123A.44.44,0,0,1,363.87,123.43Z" style="fill: rgb(224, 224, 224); transform-origin: 363.865px 121.408px 0px;" id="elxmg9ghq726" class="animable"></path><path d="M360.93,125.12a.43.43,0,0,1-.22-.06l-2.79-1.6a.45.45,0,1,1,.45-.77l2.78,1.6a.45.45,0,0,1-.22.83Z" style="fill: rgb(224, 224, 224); transform-origin: 359.501px 123.857px 0px;" id="elw8qa2gjh2bh" class="animable"></path><path d="M358.15,130.13a.43.43,0,0,1-.39-.23.44.44,0,0,1,.16-.6l2.79-1.61a.44.44,0,0,1,.44.77l-2.78,1.61A.46.46,0,0,1,358.15,130.13Z" style="fill: rgb(224, 224, 224); transform-origin: 359.537px 128.881px 0px;" id="elhyl8nr00k8c" class="animable"></path><path d="M363.87,133.43a.45.45,0,0,1-.45-.45v-3.21a.45.45,0,1,1,.89,0V133A.45.45,0,0,1,363.87,133.43Z" style="fill: rgb(224, 224, 224); transform-origin: 363.865px 131.342px 0px;" id="elm939lw9lkgo" class="animable"></path><path d="M369.58,130.13a.46.46,0,0,1-.22-.06l-2.78-1.61a.45.45,0,0,1-.17-.61.45.45,0,0,1,.61-.16l2.79,1.61a.44.44,0,0,1,.16.6A.43.43,0,0,1,369.58,130.13Z" style="fill: rgb(224, 224, 224); transform-origin: 368.191px 128.88px 0px;" id="el9exs2urpfqc" class="animable"></path><path d="M366.8,125.13a.47.47,0,0,1-.39-.22.44.44,0,0,1,.17-.61l2.78-1.61a.45.45,0,0,1,.45.77L367,125.07A.43.43,0,0,1,366.8,125.13Z" style="fill: rgb(224, 224, 224); transform-origin: 368.166px 123.893px 0px;" id="el1hlh23a81pm" class="animable"></path><path d="M311.53,39.64a.45.45,0,0,1-.45-.44V36a.45.45,0,0,1,.9,0V39.2A.45.45,0,0,1,311.53,39.64Z" style="fill: rgb(224, 224, 224); transform-origin: 311.53px 37.5958px 0px;" id="elocu7f21u1i" class="animable"></path><path d="M308.59,41.33a.46.46,0,0,1-.22-.06l-2.78-1.6a.44.44,0,0,1-.17-.61.45.45,0,0,1,.61-.16l2.78,1.6a.45.45,0,0,1,.17.61A.46.46,0,0,1,308.59,41.33Z" style="fill: rgb(224, 224, 224); transform-origin: 307.198px 40.0852px 0px;" id="el6iz0zb5tvow" class="animable"></path><path d="M305.81,46.34a.45.45,0,0,1-.39-.23.43.43,0,0,1,.17-.6l2.78-1.61a.45.45,0,0,1,.61.16.45.45,0,0,1-.17.61L306,46.28A.46.46,0,0,1,305.81,46.34Z" style="fill: rgb(224, 224, 224); transform-origin: 307.198px 45.0902px 0px;" id="el5i776i5i0zr" class="animable"></path><path d="M311.53,49.64a.45.45,0,0,1-.45-.45V46a.45.45,0,0,1,.9,0v3.21A.45.45,0,0,1,311.53,49.64Z" style="fill: rgb(224, 224, 224); transform-origin: 311.53px 47.5958px 0px;" id="elngipq0qh6uq" class="animable"></path><path d="M317.25,46.34a.46.46,0,0,1-.23-.06l-2.78-1.61a.44.44,0,0,1,.44-.77l2.79,1.61a.44.44,0,0,1,.16.6A.43.43,0,0,1,317.25,46.34Z" style="fill: rgb(224, 224, 224); transform-origin: 315.853px 45.0908px 0px;" id="eles308bwr7sv" class="animable"></path><path d="M314.46,41.34a.45.45,0,0,1-.22-.83L317,38.9a.45.45,0,1,1,.45.77l-2.79,1.61A.43.43,0,0,1,314.46,41.34Z" style="fill: rgb(224, 224, 224); transform-origin: 315.879px 40.0723px 0px;" id="el2xv2m1k06lr" class="animable"></path><path d="M100.31,45.36a.44.44,0,0,1-.44-.44V41.71a.45.45,0,1,1,.89,0v3.21A.44.44,0,0,1,100.31,45.36Z" style="fill: rgb(224, 224, 224); transform-origin: 100.315px 43.2766px 0px;" id="elm8m3z5dt67r" class="animable"></path><path d="M97.38,47.06a.46.46,0,0,1-.23-.06l-2.78-1.6a.45.45,0,0,1-.16-.61.43.43,0,0,1,.6-.17l2.79,1.61a.45.45,0,0,1-.22.83Z" style="fill: rgb(224, 224, 224); transform-origin: 95.9801px 45.8099px 0px;" id="elevkehd0u6ow" class="animable"></path><path d="M94.59,52.06a.45.45,0,0,1-.22-.83l2.78-1.61a.45.45,0,0,1,.61.16.44.44,0,0,1-.16.61L94.81,52A.43.43,0,0,1,94.59,52.06Z" style="fill: rgb(224, 224, 224); transform-origin: 95.9917px 50.8102px 0px;" id="el7jzlsl0zldl" class="animable"></path><path d="M100.31,55.36a.44.44,0,0,1-.44-.44V51.7a.45.45,0,0,1,.89,0v3.22A.45.45,0,0,1,100.31,55.36Z" style="fill: rgb(224, 224, 224); transform-origin: 100.315px 53.3384px 0px;" id="el5ez754tic1h" class="animable"></path><path d="M106,52.06a.43.43,0,0,1-.22-.06L103,50.39a.45.45,0,0,1,.45-.77l2.78,1.61a.45.45,0,0,1,.17.61A.47.47,0,0,1,106,52.06Z" style="fill: rgb(224, 224, 224); transform-origin: 104.642px 50.8227px 0px;" id="ela99i50ccqio" class="animable"></path><path d="M103.25,47.06a.44.44,0,0,1-.39-.22.45.45,0,0,1,.16-.61l2.79-1.61a.45.45,0,0,1,.44.78L103.47,47A.46.46,0,0,1,103.25,47.06Z" style="fill: rgb(224, 224, 224); transform-origin: 104.621px 45.821px 0px;" id="eltefm0qja53" class="animable"></path><path d="M81.05,137.91a.44.44,0,0,1-.44-.44v-3.21a.45.45,0,1,1,.89,0v3.21A.45.45,0,0,1,81.05,137.91Z" style="fill: rgb(224, 224, 224); transform-origin: 81.055px 135.827px 0px;" id="elep2ugocr9wj" class="animable"></path><path d="M78.11,139.61a.46.46,0,0,1-.22-.06l-2.78-1.61a.43.43,0,0,1-.17-.6.45.45,0,0,1,.61-.17l2.78,1.6a.45.45,0,0,1,.17.61A.43.43,0,0,1,78.11,139.61Z" style="fill: rgb(224, 224, 224); transform-origin: 76.7185px 138.362px 0px;" id="elw903juthpy" class="animable"></path><path d="M75.33,144.61a.47.47,0,0,1-.39-.22.44.44,0,0,1,.17-.61l2.78-1.61a.45.45,0,0,1,.61.16.45.45,0,0,1-.16.61l-2.79,1.61A.43.43,0,0,1,75.33,144.61Z" style="fill: rgb(224, 224, 224); transform-origin: 76.7194px 143.36px 0px;" id="el0od0b15z0n5" class="animable"></path><path d="M81.05,147.91a.45.45,0,0,1-.44-.45v-3.21a.45.45,0,0,1,.89,0v3.21A.45.45,0,0,1,81.05,147.91Z" style="fill: rgb(224, 224, 224); transform-origin: 81.055px 145.888px 0px;" id="elpugcb7l4z5" class="animable"></path><path d="M86.77,144.61a.46.46,0,0,1-.23-.06l-2.78-1.61a.44.44,0,0,1-.16-.61.45.45,0,0,1,.61-.16L87,143.78a.45.45,0,0,1-.22.83Z" style="fill: rgb(224, 224, 224); transform-origin: 85.3733px 143.36px 0px;" id="el7yqjqp2dvak" class="animable"></path><path d="M84,139.61a.45.45,0,0,1-.22-.83l2.78-1.61a.45.45,0,0,1,.61.16.44.44,0,0,1-.16.61l-2.78,1.61A.46.46,0,0,1,84,139.61Z" style="fill: rgb(224, 224, 224); transform-origin: 85.4017px 138.36px 0px;" id="elqjm4jwo071" class="animable"></path><path d="M89.27,209.53a.45.45,0,0,1-.45-.44v-3.22a.45.45,0,0,1,.89,0v3.22A.44.44,0,0,1,89.27,209.53Z" style="fill: rgb(224, 224, 224); transform-origin: 89.265px 207.508px 0px;" id="elk7f9rw8wn9h" class="animable"></path><path d="M86.33,211.22a.43.43,0,0,1-.22-.06l-2.79-1.6a.45.45,0,1,1,.45-.77l2.78,1.6a.45.45,0,0,1,.17.61A.47.47,0,0,1,86.33,211.22Z" style="fill: rgb(224, 224, 224); transform-origin: 84.9099px 209.957px 0px;" id="elfzbcrej01x" class="animable"></path><path d="M83.55,216.23a.43.43,0,0,1-.39-.23.44.44,0,0,1,.16-.6l2.79-1.61a.45.45,0,0,1,.61.16.45.45,0,0,1-.17.61l-2.78,1.61A.46.46,0,0,1,83.55,216.23Z" style="fill: rgb(224, 224, 224); transform-origin: 84.9391px 214.98px 0px;" id="elddly9lapfi6" class="animable"></path><path d="M89.27,219.53a.45.45,0,0,1-.45-.45v-3.21a.45.45,0,0,1,.89,0v3.21A.45.45,0,0,1,89.27,219.53Z" style="fill: rgb(224, 224, 224); transform-origin: 89.265px 217.508px 0px;" id="elys49bsu0z8c" class="animable"></path><path d="M95,216.23a.46.46,0,0,1-.22-.06L92,214.56a.44.44,0,1,1,.44-.77l2.79,1.61a.44.44,0,0,1,.16.6A.43.43,0,0,1,95,216.23Z" style="fill: rgb(224, 224, 224); transform-origin: 93.6127px 214.981px 0px;" id="ell1ywz5vj8ti" class="animable"></path><path d="M92.2,211.23a.47.47,0,0,1-.39-.22.45.45,0,0,1,.17-.61l2.78-1.61a.45.45,0,0,1,.45.77l-2.79,1.61A.43.43,0,0,1,92.2,211.23Z" style="fill: rgb(224, 224, 224); transform-origin: 93.5679px 209.993px 0px;" id="elamyw42rl2a" class="animable"></path><path d="M453.29,73.8a.45.45,0,0,1-.45-.44V70.15a.45.45,0,1,1,.89,0v3.21A.44.44,0,0,1,453.29,73.8Z" style="fill: rgb(224, 224, 224); transform-origin: 453.285px 71.7166px 0px;" id="elzwxg8e46faa" class="animable"></path><path d="M450.35,75.49a.4.4,0,0,1-.22-.06l-2.79-1.6a.44.44,0,0,1,.44-.77l2.79,1.6a.45.45,0,0,1,.16.61A.44.44,0,0,1,450.35,75.49Z" style="fill: rgb(224, 224, 224); transform-origin: 448.953px 74.2458px 0px;" id="el4rlas6yy4xh" class="animable"></path><path d="M447.56,80.5a.45.45,0,0,1-.22-.83l2.78-1.61a.45.45,0,0,1,.61.16.44.44,0,0,1-.16.61l-2.78,1.61A.46.46,0,0,1,447.56,80.5Z" style="fill: rgb(224, 224, 224); transform-origin: 448.962px 79.2502px 0px;" id="el9w2wj7b5hgs" class="animable"></path><path d="M453.29,83.8a.45.45,0,0,1-.45-.45V80.14a.45.45,0,0,1,.89,0v3.21A.45.45,0,0,1,453.29,83.8Z" style="fill: rgb(224, 224, 224); transform-origin: 453.285px 81.7784px 0px;" id="ela5ffa1mzta" class="animable"></path><path d="M459,80.5a.46.46,0,0,1-.22-.06L456,78.83a.45.45,0,1,1,.45-.77l2.78,1.61a.44.44,0,0,1,.17.61A.47.47,0,0,1,459,80.5Z" style="fill: rgb(224, 224, 224); transform-origin: 457.592px 79.2323px 0px;" id="el8zvjoch5c5j" class="animable"></path><path d="M456.22,75.5a.44.44,0,0,1-.39-.22.45.45,0,0,1,.16-.61l2.79-1.61a.45.45,0,0,1,.61.16.44.44,0,0,1-.17.61l-2.78,1.61A.46.46,0,0,1,456.22,75.5Z" style="fill: rgb(224, 224, 224); transform-origin: 457.611px 74.2503px 0px;" id="eld0e1tv03jil" class="animable"></path></g></g><defs>     <filter id="active" height="200%">         <feMorphology in="SourceAlpha" result="DILATED" operator="dilate" radius="2"></feMorphology>                <feFlood flood-color="#32DFEC" flood-opacity="1" result="PINK"></feFlood>        <feComposite in="PINK" in2="DILATED" operator="in" result="OUTLINE"></feComposite>        <feMerge>            <feMergeNode in="OUTLINE"></feMergeNode>            <feMergeNode in="SourceGraphic"></feMergeNode>        </feMerge>    </filter>    <filter id="hover" height="200%">        <feMorphology in="SourceAlpha" result="DILATED" operator="dilate" radius="2"></feMorphology>                <feFlood flood-color="#ff0000" flood-opacity="0.5" result="PINK"></feFlood>        <feComposite in="PINK" in2="DILATED" operator="in" result="OUTLINE"></feComposite>        <feMerge>            <feMergeNode in="OUTLINE"></feMergeNode>            <feMergeNode in="SourceGraphic"></feMergeNode>        </feMerge>            <feColorMatrix type="matrix" values="0   0   0   0   0                0   1   0   0   0                0   0   0   0   0                0   0   0   1   0 "></feColorMatrix>    </filter></defs></svg>