<?xml version="1.0" encoding="utf-8"?><svg version="1.1" id="Layer_1" xmlns="http://www.w3.org/2000/svg" xmlns:xlink="http://www.w3.org/1999/xlink" x="0px" y="0px" viewBox="0 0 122.88 122.88" style="enable-background:new 0 0 122.88 122.88" xml:space="preserve"><g><path d="M61.44,0c16.97,0,32.33,6.88,43.44,18c0.48,0.48,0.96,0.97,1.42,1.47l-1.92,6.46c-1.12-1.35-2.3-2.65-3.54-3.89l0,0 C90.76,11.96,76.83,5.72,61.44,5.72s-29.32,6.24-39.4,16.32C11.96,32.12,5.72,46.05,5.72,61.44s6.24,29.32,16.32,39.4 c10.08,10.08,24.01,16.32,39.4,16.32s29.32-6.24,39.4-16.32c10.08-10.08,16.32-24.01,16.32-39.4c0-5.14-0.7-10.11-2-14.84 l2.78-9.33c3.18,7.42,4.94,15.59,4.94,24.17c0,16.97-6.88,32.33-18,43.44c-11.12,11.12-26.48,18-43.44,18 c-16.97,0-32.33-6.88-43.44-18C6.88,93.77,0,78.41,0,61.44C0,44.47,6.88,29.11,18,18C29.11,6.88,44.47,0,61.44,0L61.44,0L61.44,0z M84.49,65.97c2.34,0,4.41,1.16,5.67,2.94l7.86-1.46l16.42-55.19c0.45-1.54,2.07-2.42,3.61-1.97s2.42,2.07,1.97,3.61l-16.93,56.9 c-0.33,1.13-1.29,1.91-2.39,2.06l-9.48,1.76c-0.76,3.02-3.49,5.25-6.74,5.25c-3.84,0-6.95-3.11-6.95-6.95S80.65,65.97,84.49,65.97 L84.49,65.97z M34.22,54.89c-0.44,1.27-1.82,1.94-3.09,1.51c-1.27-0.44-1.94-1.82-1.51-3.09c1.72-4.97,4.45-9.45,7.94-13.21 c3.5-3.77,7.78-6.82,12.59-8.9c1.23-0.53,2.66,0.04,3.19,1.27c0.53,1.23-0.04,2.66-1.27,3.19c-4.17,1.8-7.89,4.46-10.95,7.76 C38.09,46.69,35.72,50.59,34.22,54.89L34.22,54.89L34.22,54.89z M21.29,52.45c-0.33,1.31-1.66,2.1-2.96,1.76 c-1.31-0.33-2.1-1.66-1.76-2.97c1.96-7.68,5.79-14.61,10.96-20.29c5.21-5.72,11.79-10.16,19.21-12.82 c1.27-0.45,2.67,0.21,3.12,1.48c0.45,1.27-0.21,2.67-1.48,3.12c-6.67,2.39-12.57,6.38-17.25,11.5 C26.49,39.33,23.05,45.56,21.29,52.45L21.29,52.45L21.29,52.45z M61.44,47.14c3.95,0,7.53,1.6,10.11,4.19 c2.59,2.59,4.19,6.16,4.19,10.11c0,3.95-1.6,7.53-4.19,10.11c-2.59,2.59-6.16,4.19-10.11,4.19c-3.95,0-7.53-1.6-10.11-4.19 c-2.59-2.59-4.19-6.16-4.19-10.11c0-3.95,1.6-7.53,4.19-10.11C53.91,48.74,57.49,47.14,61.44,47.14L61.44,47.14L61.44,47.14z"/></g></svg>