<?xml version="1.0" encoding="UTF-8"?>
<svg viewBox="0 0 652.5 652.5" xmlns="http://www.w3.org/2000/svg" xmlns:xlink="http://www.w3.org/1999/xlink">
 <defs>
  <linearGradient id="a">
   <stop stop-color="#fff" offset="0"/>
   <stop stop-color="#fff" stop-opacity="0" offset="1"/>
  </linearGradient>
  <linearGradient id="b">
   <stop stop-color="#fff" stop-opacity=".30928" offset="0"/>
   <stop stop-color="#c3ffff" stop-opacity="0" offset="1"/>
  </linearGradient>
  <linearGradient id="f" x1="156.12" x2="93.862" y1="334.97" y2="273.03" gradientUnits="userSpaceOnUse">
   <stop stop-opacity=".50588" offset="0"/>
   <stop stop-opacity="0" offset="1"/>
  </linearGradient>
  <linearGradient id="h" x1="263.75" x2="331.06" y1="260.13" y2="330.78" gradientUnits="userSpaceOnUse">
   <stop offset="0"/>
   <stop stop-opacity="0" offset="1"/>
  </linearGradient>
  <linearGradient id="g" x1="-20.319" x2="93.862" y1="159.44" y2="273.03" gradientUnits="userSpaceOnUse" xlink:href="#a"/>
  <linearGradient id="e" x1="391.81" x2="331.06" y1="394.54" y2="330.78" gradientUnits="userSpaceOnUse" xlink:href="#a"/>
  <radialGradient id="d" cx="123.53" cy="130.57" r="180" gradientUnits="userSpaceOnUse" xlink:href="#b"/>
  <radialGradient id="c" cx="200.03" cy="-138.31" r="120.19" gradientTransform="matrix(1.1233 0 0 -1.1233 288.85 353.75)" gradientUnits="userSpaceOnUse" xlink:href="#b"/>
 </defs>
 <path d="m326.25 16.875c-170.78 0-309.38 138.6-309.38 309.38 0 170.78 138.6 309.38 309.38 309.38s309.38-138.6 309.38-309.38c0-170.78-138.6-309.38-309.38-309.38zm0 237.38c39.744 0 72 32.256 72 72s-32.256 72-72 72-72-32.256-72-72 32.256-72 72-72z"/>
 <path d="m513.53 378.69c-5.1746 0-10.289 0.27605-15.312 0.84375-17.528 56.568-62.227 101.23-118.81 118.72-0.57721 5.0647-0.875 10.219-0.875 15.438 0 74.52 60.48 135 135 135s135-60.48 135-135-60.48-135-135-135z" fill="url(#c)" opacity=".5"/>
 <path d="m268.34 22.312c-124.26 23.561-222.28 121.5-245.97 245.72 26.397 45.695 72.289 78.741 126.28 87.719-1.585-9.6001-2.4062-19.453-2.4062-29.5-1e-5 -99.36 80.64-180 180-180 10.113 0 20.028 0.83217 29.688 2.4375-8.9225-54.012-41.926-99.933-87.594-126.38zm57.906 226.78c-42.583 0-77.156 34.573-77.156 77.156 0 5.7324 0.65591 11.311 1.8438 16.688 3.0361-1.3407 6.0235-2.7804 8.9688-4.2812-0.74886-4.0237-1.1562-8.1665-1.1562-12.406-1e-5 -37.26 30.24-67.5 67.5-67.5 4.2629 0 8.4244 0.43061 12.469 1.1875 1.5031-2.942 2.9379-5.9361 4.2812-8.9688-5.3972-1.1973-10.994-1.875-16.75-1.875z" fill="url(#d)"/>
 <path d="m326.25 16.875c-170.78 0-309.38 138.6-309.38 309.38 0 170.78 138.6 309.38 309.38 309.38s309.38-138.6 309.38-309.38c0-170.78-138.6-309.38-309.38-309.38zm0 10.125c165.19 0 299.25 134.06 299.25 299.25s-134.06 299.25-299.25 299.25-299.25-134.06-299.25-299.25 134.06-299.25 299.25-299.25z"/>
 <path transform="matrix(1.2034 0 0 1.2094 335.56 126.67)" d="m88.844 264.11c-53.275 53.668-142.62 53.794-196.24 0.5652-53.981-53.586-54.107-143.45-0.56766-197.38 53.898-54.294 144.28-54.421 198.53-0.57013 54.609 54.211 54.737 145.12 0.57261 199.68-54.525 54.925-145.96 55.053-200.84 0.57508-55.243-54.841-55.372-146.81-0.57758-202 55.158-55.562 147.66-55.691 203.17-0.58007 55.882 55.477 56.012 148.51 0.58257 204.34-55.797 56.204-149.36 56.334-205.52 0.58508-56.527-56.118-56.658-150.22-0.5876-206.7 56.441-56.852 151.09-56.983 207.89-0.59012 57.178 56.765 57.31 151.95 0.59265 209.08-57.091 57.505-152.83 57.637-210.28 0.59519-57.834-57.418-57.967-153.7-0.59773-211.48 57.746-58.164 154.58-58.297 212.69-0.60029 58.495 58.076 58.63 155.46 0.60285 213.91-58.407 58.828-156.35 58.963-215.13 0.60541-59.163-58.74-59.298-157.24-0.60799-216.35 59.074-59.499 158.13-59.634 217.58-0.61057 59.836 59.409 59.972 159.03 0.61316 218.81-59.746 60.174-159.93 60.312-220.05 0.61576-60.515-60.084-60.652-160.84-0.61836-221.3 60.424-60.856 161.74-60.994 222.55-0.62097 61.199 60.765 61.338 162.66 0.62359 223.8-61.108 61.544-163.57 61.683-225.06 0.62622-61.889-61.452-62.029-164.49-0.62885-226.33 61.798-62.237 165.42-62.377 227.6-0.63148 62.586 62.144 62.727 166.35 0.63413 228.88-62.493 62.936-167.28 63.078-230.16 0.63678-63.288-62.843-63.43-168.21-0.63944-231.45 63.194-63.641 169.16-63.784 232.74-0.64212 63.996 63.547 64.139 170.1 0.64479 234.04-63.901 64.352-171.05 64.496-235.34 0.64748-64.709-64.257-64.854-172-0.65017-236.65 64.614-65.068 172.95-65.214 237.97-0.65287 65.429 64.973 65.575 173.91 0.65557 239.29-65.333 65.791-174.88 65.938-240.61 0.65829-66.155-65.695-66.302-175.85-0.66101-241.95 66.058-66.52 176.82-66.668 243.28-0.66374 66.887 66.423 67.035 177.79 0.66647 244.62-66.789 67.255-178.77 67.404-245.97 0.66921-67.624-67.157-67.774-179.76-0.67197-247.33 67.526-67.996 180.75-68.146 248.68-0.67473 68.368 67.897 68.519 181.74 0.6775 250.05-68.269 68.743-182.73 68.894-251.42 0.68027-69.118-68.643-69.27-183.73-0.68305-252.8 69.019-69.496 184.74-69.648 254.18-0.68584 69.875 69.396 70.028 185.75 0.68863 255.56-69.774 70.255-186.76 70.409-256.96 0.69144-70.637-70.154-70.792-187.78-0.69425-258.35 70.536-71.021 188.8-71.176 259.76-0.69707 71.406 70.919 71.561 189.82 0.6999 261.17-71.303 71.792-190.85 71.949-262.58 0.70273-72.181-71.69-72.338-191.88-0.70557-264.01 72.077-72.57 192.92-72.728 265.43-0.70842 72.962 72.467 73.12 193.96 0.71128 266.87-72.858 73.355-195.01 73.514-268.3 0.71415-73.749-73.25-73.909-196.06-0.71702-269.75 73.644-74.145 197.11-74.305 271.2-0.7199 74.543 74.04 74.704 198.17 0.72278 272.65-74.437 74.942-199.23 75.104-274.12 0.72568-75.343-74.836-75.505-200.3-0.72859-275.58 75.237-75.746 201.37-75.908 277.06-0.7315 76.15 75.639 76.313 202.45 0.73441 278.54-76.043 76.556-203.53 76.72-280.02 0.73734-76.963-76.448-77.128-204.61-0.74028-281.51 76.855-77.372 205.7-77.537 283.01-0.74322 77.783 77.263 77.949 206.8 0.74617 284.52-77.674 78.195-207.89 78.362-286.02 0.74913-78.609-78.086-78.776-208.99-0.75209-287.54 78.499-79.024 210.1-79.192 289.06-0.75506 79.441 78.914 79.61 211.21 0.75805 290.59-79.331 79.86-212.33 80.03-292.12 0.76104-80.281-79.749-80.451-213.44-0.76403-293.66 80.169-80.703 214.57-80.874 295.21-0.76703 81.127 80.591 81.298 215.7 0.77005 296.76-81.014 81.552-216.83 81.724-298.32 0.77307-81.979-81.439-82.152-217.97-0.77609-299.88 81.866-82.408 219.11-82.581 301.45-0.77913 82.839 82.294 83.013 220.25 0.78218 303.03-82.724 83.271-221.4 83.445-304.61 0.78523-83.705-83.156-83.88-222.56-0.78829-306.2 83.59-84.14 223.72-84.316 307.79-0.79135 84.577 84.025 84.754 224.88 0.79443 309.39-84.462 85.016-226.05 85.194-311 0.79751-85.457-84.9-85.635-227.22-0.80061-312.61 85.34-85.899 228.4-86.078 314.23-0.8037 86.344 85.782 86.523 229.58 0.80681 315.86-86.226 86.789-230.77 86.969-317.49 0.80992-87.237-86.671-87.418-231.96-0.81305-319.13 87.118-87.686 233.16-87.868 320.78-0.81618 88.137 87.567 88.319 234.36 0.81932 322.43-88.018 88.59-235.56 88.773-324.09 0.82246-89.044-88.47-89.228-236.77-0.82562-325.75 88.924-89.501 237.99-89.685 327.42-0.82878 89.958 89.38 90.144 239.21 0.83195 329.1-89.837 90.418-240.43 90.604-330.78 0.83513-90.88-90.296-91.066-241.66-0.83832-332.47 90.757-91.343 242.89-91.53 334.17-0.84152 91.808 91.22 91.996 244.13 0.84472 335.87-91.685 92.275-245.37 92.463-337.58 0.84793-92.743-92.151-92.933-246.62-0.85115-339.29 92.619-93.214 247.87-93.404 341.02-0.85438 93.686 93.089 93.877 249.13 0.85761 342.75-93.561 94.16-250.39 94.351-344.48 0.86085-94.636-94.034-94.828-251.66-0.86411-346.22 94.51-95.113 252.93-95.306 347.97-0.86737 95.592 94.987 95.786 254.21 0.87064 349.73-95.465 96.074-255.49 96.268-351.49 0.87391-96.556-95.946-96.752-256.77-0.8772-353.26 96.429-97.041 258.06-97.237 355.03-0.88049 97.527 96.912 97.725 259.36 0.887 356.81" fill="none" stroke="#f0f0ff" stroke-opacity=".03922"/>
 <path d="m326.25 168.75c-86.94 0-157.5 70.56-157.5 157.5s70.56 157.5 157.5 157.5 157.5-70.56 157.5-157.5-70.56-157.5-157.5-157.5zm0 90c37.26-1e-5 67.5 30.24 67.5 67.5s-30.24 67.5-67.5 67.5-67.5-30.24-67.5-67.5 30.24-67.5 67.5-67.5z" fill="#ff8a3c"/>
 <path transform="matrix(1.2034 0 0 1.2094 333.56 126.67)" d="m88.844 264.11c-53.275 53.668-142.62 53.794-196.24 0.5652-53.981-53.586-54.107-143.45-0.56766-197.38 53.898-54.294 144.28-54.421 198.53-0.57013 54.609 54.211 54.737 145.12 0.57261 199.68-54.525 54.925-145.96 55.053-200.84 0.57508-55.243-54.841-55.372-146.81-0.57758-202 55.158-55.562 147.66-55.691 203.17-0.58007 55.882 55.477 56.012 148.51 0.58257 204.34-55.797 56.204-149.36 56.334-205.52 0.58508-56.527-56.118-56.658-150.22-0.5876-206.7 56.441-56.852 151.09-56.983 207.89-0.59012 57.178 56.765 57.31 151.95 0.59265 209.08-57.091 57.505-152.83 57.637-210.28 0.59519-57.834-57.418-57.967-153.7-0.59773-211.48 57.746-58.164 154.58-58.297 212.69-0.60029 58.495 58.076 58.63 155.46 0.60285 213.91-58.407 58.828-156.35 58.963-215.13 0.60541-59.163-58.74-59.298-157.24-0.60799-216.35 59.074-59.499 158.13-59.634 217.58-0.61057 59.836 59.409 59.972 159.03 0.61316 218.81-59.746 60.174-159.93 60.312-220.05 0.61576-60.515-60.084-60.652-160.84-0.61836-221.3 60.424-60.856 161.74-60.994 222.55-0.62097 61.199 60.765 61.338 162.66 0.62359 223.8-61.108 61.544-163.57 61.683-225.06 0.62622-61.889-61.452-62.029-164.49-0.62885-226.33 61.798-62.237 165.42-62.377 227.6-0.63148 62.586 62.144 62.727 166.35 0.63413 228.88-62.493 62.936-167.28 63.078-230.16 0.63678-63.288-62.843-63.43-168.21-0.63944-231.45 63.194-63.641 169.16-63.784 232.74-0.64212 63.996 63.547 64.139 170.1 0.64479 234.04-63.901 64.352-171.05 64.496-235.34 0.64748-64.709-64.257-64.854-172-0.65017-236.65 64.614-65.068 172.95-65.214 237.97-0.65287 65.429 64.973 65.575 173.91 0.65557 239.29-65.333 65.791-174.88 65.938-240.61 0.65829-66.155-65.695-66.302-175.85-0.66101-241.95 66.058-66.52 176.82-66.668 243.28-0.66374 66.887 66.423 67.035 177.79 0.66647 244.62-66.789 67.255-178.77 67.404-245.97 0.66921-67.624-67.157-67.774-179.76-0.67197-247.33 67.526-67.996 180.75-68.146 248.68-0.67473 68.368 67.897 68.519 181.74 0.6775 250.05-68.269 68.743-182.73 68.894-251.42 0.68027-69.118-68.643-69.27-183.73-0.68305-252.8 69.019-69.496 184.74-69.648 254.18-0.68584 69.875 69.396 70.028 185.75 0.68863 255.56-69.774 70.255-186.76 70.409-256.96 0.69144-70.637-70.154-70.792-187.78-0.69425-258.35 70.536-71.021 188.8-71.176 259.76-0.69707 71.406 70.919 71.561 189.82 0.6999 261.17-71.303 71.792-190.85 71.949-262.58 0.70273-72.181-71.69-72.338-191.88-0.70557-264.01 72.077-72.57 192.92-72.728 265.43-0.70842 72.962 72.467 73.12 193.96 0.71128 266.87-72.858 73.355-195.01 73.514-268.3 0.71415-73.749-73.25-73.909-196.06-0.71702-269.75 73.644-74.145 197.11-74.305 271.2-0.7199 74.543 74.04 74.704 198.17 0.72278 272.65-74.437 74.942-199.23 75.104-274.12 0.72568-75.343-74.836-75.505-200.3-0.72859-275.58 75.237-75.746 201.37-75.908 277.06-0.7315 76.15 75.639 76.313 202.45 0.73441 278.54-76.043 76.556-203.53 76.72-280.02 0.73734-76.963-76.448-77.128-204.61-0.74028-281.51 76.855-77.372 205.7-77.537 283.01-0.74322 77.783 77.263 77.949 206.8 0.74617 284.52-77.674 78.195-207.89 78.362-286.02 0.74913-78.609-78.086-78.776-208.99-0.75209-287.54 78.499-79.024 210.1-79.192 289.06-0.75506 79.441 78.914 79.61 211.21 0.75805 290.59-79.331 79.86-212.33 80.03-292.12 0.76104-80.281-79.749-80.451-213.44-0.76403-293.66 80.169-80.703 214.57-80.874 295.21-0.76703 81.127 80.591 81.298 215.7 0.77005 296.76-81.014 81.552-216.83 81.724-298.32 0.77307-81.979-81.439-82.152-217.97-0.77609-299.88 81.866-82.408 219.11-82.581 301.45-0.77913 82.839 82.294 83.013 220.25 0.78218 303.03-82.724 83.271-221.4 83.445-304.61 0.78523-83.705-83.156-83.88-222.56-0.78829-306.2 83.59-84.14 223.72-84.316 307.79-0.79135 84.577 84.025 84.754 224.88 0.79443 309.39-84.462 85.016-226.05 85.194-311 0.79751-85.457-84.9-85.635-227.22-0.80061-312.61 85.34-85.899 228.4-86.078 314.23-0.8037 86.344 85.782 86.523 229.58 0.80681 315.86-86.226 86.789-230.77 86.969-317.49 0.80992-87.237-86.671-87.418-231.96-0.81305-319.13 87.118-87.686 233.16-87.868 320.78-0.81618 88.137 87.567 88.319 234.36 0.81932 322.43-88.018 88.59-235.56 88.773-324.09 0.82246-89.044-88.47-89.228-236.77-0.82562-325.75 88.924-89.501 237.99-89.685 327.42-0.82878 89.958 89.38 90.144 239.21 0.83195 329.1-89.837 90.418-240.43 90.604-330.78 0.83513-90.88-90.296-91.066-241.66-0.83832-332.47 90.757-91.343 242.89-91.53 334.17-0.84152 91.808 91.22 91.996 244.13 0.84472 335.87-91.685 92.275-245.37 92.463-337.58 0.84793-92.743-92.151-92.933-246.62-0.85115-339.29 92.619-93.214 247.87-93.404 341.02-0.85438 93.686 93.089 93.877 249.13 0.85761 342.75-93.561 94.16-250.39 94.351-344.48 0.86085-94.636-94.034-94.828-251.66-0.86411-346.22 94.51-95.113 252.93-95.306 347.97-0.86737 95.592 94.987 95.786 254.21 0.87064 349.73-95.465 96.074-255.49 96.268-351.49 0.87391-96.556-95.946-96.752-256.77-0.8772-353.26 96.429-97.041 258.06-97.237 355.03-0.88049 97.527 96.912 97.725 259.36 0.887 356.81" fill="none" stroke="#000" stroke-opacity=".49727"/>
 <path transform="matrix(1.7862 0 0 1.7954 205.04 -117.5)" d="m155.49 247.16a87.629 87.18 0 1 1 -175.26 0 87.629 87.18 0 1 1 175.26 0z" fill="none" stroke="url(#g)" stroke-linecap="round" stroke-opacity=".25098" stroke-width="1.2564"/>
 <path transform="matrix(1.7862 0 0 1.7954 205.04 -117.5)" d="m155.49 247.16a87.629 87.18 0 1 1 -175.26 0 87.629 87.18 0 1 1 175.26 0z" fill="none" stroke="url(#f)" stroke-linecap="round" stroke-opacity=".25098" stroke-width="2.5128"/>
 <path transform="matrix(1.0746 0 0 1.0238 -25.801 -8.6896)" d="m390.96 327.15a63.363 66.508 0 1 1 -126.73 0 63.363 66.508 0 1 1 126.73 0z" fill="none" stroke="url(#h)" stroke-opacity=".25098" stroke-width="1.7311"/>
 <path transform="matrix(1.0746 0 0 1.0238 -25.801 -8.6896)" d="m390.96 327.15a63.363 66.508 0 1 1 -126.73 0 63.363 66.508 0 1 1 126.73 0z" fill="none" stroke="url(#e)" stroke-opacity=".25098" stroke-width="1.7311"/>
 <path transform="matrix(1.6841 0 0 1.6928 211.97 -92.147)" d="m155.49 247.16a87.629 87.18 0 1 1 -175.26 0 87.629 87.18 0 1 1 175.26 0z" fill="none" stroke="#fff" stroke-linecap="round" stroke-opacity=".37647" stroke-width="1.0896"/>
</svg>
